M48
INCH
T60C0.020
T59C0.035
T58C0.038
T57C0.129
T56C0.045
T55C0.030
T54C0.128
T53C0.048
%
T60
X025550Y002850
X046450Y003750
X039150Y004800
X046950Y003750
X030400Y007400
X030400Y008500
X031100Y007950
X041250Y008050
X033950Y012100
X039300Y011950
X039800Y011950
X047750Y013250
X047250Y013250
X033500Y012100
X030400Y009500
X030950Y009850
X036950Y006300
X034350Y006150
X033850Y006150
X033350Y006150
X034450Y010950
X033950Y010950
X037350Y010800
X019200Y006650
X019200Y007100
X013750Y012150
X014000Y011750
X013750Y011350
X014000Y010950
X018600Y003800
X017900Y003100
X018250Y003450
X018300Y004150
X018300Y004600
X019500Y004250
X019150Y004600
X022850Y009350
X023300Y009350
X028750Y007950
X028150Y009200
X024800Y009400
X026200Y007600
X027700Y009300
X020750Y006650
X020750Y007100
X024400Y012650
X024900Y012650
X025400Y012650
X025900Y012650
X019200Y007550
X022850Y007650
X023300Y007650
X025650Y004500
X024850Y003950
X025300Y003950
X024400Y003950
T55
X009300Y012350
X008800Y013350
X008300Y012350
X007800Y013350
X007300Y012350
X006800Y013350
X017300Y012350
X016800Y013350
X015800Y013350
X014800Y013350
X016300Y012350
X015300Y012350
X028800Y013350
X028300Y012350
X027800Y013350
X027300Y012350
X026800Y013350
X006800Y004650
X007300Y003650
X007800Y004650
X008300Y003650
X008800Y004650
X009300Y003650
X014800Y004650
X015300Y003650
X015800Y004650
X016300Y003650
X016800Y004650
X017300Y003650
X026800Y004650
X027300Y003650
X027800Y004650
X028300Y003650
X028800Y004650
X029300Y003650
X034800Y004650
X035300Y003650
X035800Y004650
X036300Y003650
X036800Y004650
X037300Y003650
X036800Y013350
X035800Y013350
X034800Y013350
X037300Y012350
X036300Y012350
X035300Y012350
X029300Y012350
T59
X032000Y007250
X032000Y008250
X032000Y009250
X033000Y007750
X033000Y008750
X033000Y009750
X038800Y007250
X039800Y007750
X038800Y008250
X039800Y008750
X038800Y009250
X039800Y009750
T58
X045950Y005100
X046950Y005100
X045950Y006100
X046950Y006100
X045950Y010950
X046950Y010950
T56
X018650Y008650
X017650Y008650
X016650Y008650
T53
X015050Y014750
X013050Y014750
X003050Y014750
X001050Y014750
X005050Y014750
X007050Y014750
X011050Y014750
X009050Y014750
X005050Y002250
X001050Y002250
X003050Y002250
X007050Y002250
X025050Y002250
X023050Y002250
X027050Y002250
X009050Y002250
X011050Y002250
X017050Y002250
X019050Y002250
X013050Y002250
X015050Y002250
X021050Y002250
X017050Y014750
X023050Y014750
X021050Y014750
X027050Y014750
X025050Y014750
X029050Y014750
X019050Y014750
X002250Y009500
X002250Y007500
X047050Y014750
X045050Y014750
X051050Y014750
X049050Y014750
X043050Y014750
X041050Y014750
X050250Y009500
X050250Y011500
X050250Y005500
X050250Y007500
X049050Y002250
X031050Y002250
X033050Y002250
X035050Y002250
X037050Y002250
X039050Y002250
X029050Y002250
X051050Y002250
X045050Y002250
X047050Y002250
X041050Y002250
X043050Y002250
X039050Y014750
X037050Y014750
X035050Y014750
X033050Y014750
X031050Y014750
T54
X014050Y015850
X010050Y015850
X006050Y015850
X018050Y015850
X026050Y015850
X006050Y001150
X010050Y001150
X014050Y001150
X018050Y001150
X042300Y006500
X042300Y010500
X038050Y001150
X026050Y001150
X030050Y001150
X034050Y001150
X038050Y015850
X034050Y015850
X030050Y015850
X035500Y006500
X035500Y010500
T57
X005700Y008500
X046700Y008500
M30
