G04 start of page 8 for group -4015 idx -4015 *
G04 Title: (unknown), toppaste *
G04 Creator: pcb 20110918 *
G04 CreationDate: Sat 02 Feb 2013 07:54:47 PM GMT UTC *
G04 For: petersen *
G04 Format: Gerber/RS-274X *
G04 PCB-Dimensions: 525000 170000 *
G04 PCB-Coordinate-Origin: lower left *
%MOIN*%
%FSLAX25Y25*%
%LNTOPPASTE*%
%ADD86R,0.0116X0.0116*%
%ADD85R,0.0430X0.0430*%
%ADD84R,0.0360X0.0360*%
%ADD83R,0.0512X0.0512*%
%ADD82R,0.0490X0.0490*%
G54D82*X197700Y68500D02*X201300D01*
X197700Y58500D02*X201300D01*
G54D83*X185607Y65543D02*X186393D01*
X185607Y58457D02*X186393D01*
X207319Y80595D02*X209681D01*
X207319Y92405D02*X209681D01*
X208107Y102457D02*X208893D01*
X208107Y109543D02*X208893D01*
G54D82*X213700Y68500D02*X217300D01*
X213700Y58500D02*X217300D01*
G54D84*X36400Y116100D02*Y114900D01*
X23500Y116100D02*Y114900D01*
G54D85*X92500Y102500D02*Y93500D01*
Y77000D02*Y67900D01*
G54D82*X443000Y50800D02*Y47200D01*
X433000Y50800D02*Y47200D01*
G54D85*X130500Y102500D02*Y93500D01*
Y77000D02*Y67900D01*
G54D83*X162745Y70405D02*X168255D01*
X162745Y58595D02*X168255D01*
G54D82*X443000Y122800D02*Y119200D01*
X433000Y122800D02*Y119200D01*
G54D83*X291457Y96393D02*Y95607D01*
X298543Y96393D02*Y95607D01*
X291457Y85393D02*Y84607D01*
X298543Y85393D02*Y84607D01*
G54D86*X228426Y72402D02*Y67678D01*
X230394Y72402D02*Y67678D01*
X232363Y72402D02*Y67678D01*
X234331Y72402D02*Y67678D01*
X236300Y72402D02*Y67678D01*
X238268Y72402D02*Y67678D01*
X240237Y72402D02*Y67678D01*
X242205Y72402D02*Y67678D01*
X244174Y72402D02*Y67678D01*
X246142Y72402D02*Y67678D01*
X248111Y72402D02*Y67678D01*
X250079Y72402D02*Y67678D01*
X252048Y72402D02*Y67678D01*
X254016Y72402D02*Y67678D01*
X255984Y72402D02*Y67678D01*
X257952Y72402D02*Y67678D01*
X259921Y72402D02*Y67678D01*
X261889Y72402D02*Y67678D01*
X263858Y72402D02*Y67678D01*
X265826Y72402D02*Y67678D01*
X267795Y72402D02*Y67678D01*
X269763Y72402D02*Y67678D01*
X271732Y72402D02*Y67678D01*
X273700Y72402D02*Y67678D01*
X275669Y72402D02*Y67678D01*
X277637Y72402D02*Y67678D01*
X279606Y72402D02*Y67678D01*
X281574Y72402D02*Y67678D01*
Y102322D02*Y97598D01*
X279606Y102322D02*Y97598D01*
X277637Y102322D02*Y97598D01*
X275669Y102322D02*Y97598D01*
X273700Y102322D02*Y97598D01*
X271732Y102322D02*Y97598D01*
X269763Y102322D02*Y97598D01*
X267795Y102322D02*Y97598D01*
X265826Y102322D02*Y97598D01*
X263858Y102322D02*Y97598D01*
X261889Y102322D02*Y97598D01*
X259921Y102322D02*Y97598D01*
X257952Y102322D02*Y97598D01*
X255984Y102322D02*Y97598D01*
X254016Y102322D02*Y97598D01*
X252048Y102322D02*Y97598D01*
X250079Y102322D02*Y97598D01*
X248111Y102322D02*Y97598D01*
X246142Y102322D02*Y97598D01*
X244174Y102322D02*Y97598D01*
X242205Y102322D02*Y97598D01*
X240237Y102322D02*Y97598D01*
X238268Y102322D02*Y97598D01*
X236300Y102322D02*Y97598D01*
X234331Y102322D02*Y97598D01*
X232363Y102322D02*Y97598D01*
X230394Y102322D02*Y97598D01*
X228426Y102322D02*Y97598D01*
G54D83*X291457Y74393D02*Y73607D01*
X298543Y74393D02*Y73607D01*
X405457Y50393D02*Y49607D01*
X412543Y50393D02*Y49607D01*
M02*
