G04 start of page 9 for group -4015 idx -4015 *
G04 Title: (unknown), toppaste *
G04 Creator: pcb 20110918 *
G04 CreationDate: Tue 16 Apr 2013 03:33:53 AM GMT UTC *
G04 For: railfan *
G04 Format: Gerber/RS-274X *
G04 PCB-Dimensions: 525000 170000 *
G04 PCB-Coordinate-Origin: lower left *
%MOIN*%
%FSLAX25Y25*%
%LNTOPPASTE*%
%ADD87R,0.0100X0.0100*%
%ADD86R,0.0430X0.0430*%
%ADD85R,0.0360X0.0360*%
%ADD84R,0.0512X0.0512*%
%ADD83R,0.0490X0.0490*%
G54D83*X197700Y68500D02*X201300D01*
X197700Y58500D02*X201300D01*
G54D84*X185607Y65543D02*X186393D01*
X185607Y58457D02*X186393D01*
X207319Y80595D02*X209681D01*
X207319Y92405D02*X209681D01*
X208107Y102457D02*X208893D01*
X208107Y109543D02*X208893D01*
G54D83*X213700Y68500D02*X217300D01*
X213700Y58500D02*X217300D01*
G54D85*X36400Y116100D02*Y114900D01*
X23500Y116100D02*Y114900D01*
G54D86*X92500Y102500D02*Y93500D01*
Y77000D02*Y67900D01*
G54D83*X443000Y50800D02*Y47200D01*
X433000Y50800D02*Y47200D01*
G54D86*X130500Y102500D02*Y93500D01*
Y77000D02*Y67900D01*
G54D84*X162745Y70405D02*X168255D01*
X162745Y58595D02*X168255D01*
G54D83*X443000Y122800D02*Y119200D01*
X433000Y122800D02*Y119200D01*
G54D84*X291457Y96393D02*Y95607D01*
X298543Y96393D02*Y95607D01*
X291457Y85393D02*Y84607D01*
X298543Y85393D02*Y84607D01*
G54D87*X228426Y70940D02*Y69140D01*
X230394Y70940D02*Y69140D01*
X232363Y70940D02*Y69140D01*
X234331Y70940D02*Y69140D01*
X236300Y70940D02*Y69140D01*
X238268Y70940D02*Y69140D01*
X240237Y70940D02*Y69140D01*
X242205Y70940D02*Y69140D01*
X244174Y70940D02*Y69140D01*
X246142Y70940D02*Y69140D01*
X248111Y70940D02*Y69140D01*
X250079Y70940D02*Y69140D01*
X252048Y70940D02*Y69140D01*
X254016Y70940D02*Y69140D01*
X255984Y70940D02*Y69140D01*
X257952Y70940D02*Y69140D01*
X259921Y70940D02*Y69140D01*
X261889Y70940D02*Y69140D01*
X263858Y70940D02*Y69140D01*
X265826Y70940D02*Y69140D01*
X267795Y70940D02*Y69140D01*
X269763Y70940D02*Y69140D01*
X271732Y70940D02*Y69140D01*
X273700Y70940D02*Y69140D01*
X275669Y70940D02*Y69140D01*
X277637Y70940D02*Y69140D01*
X279606Y70940D02*Y69140D01*
X281574Y70940D02*Y69140D01*
Y100860D02*Y99060D01*
X279606Y100860D02*Y99060D01*
X277637Y100860D02*Y99060D01*
X275669Y100860D02*Y99060D01*
X273700Y100860D02*Y99060D01*
X271732Y100860D02*Y99060D01*
X269763Y100860D02*Y99060D01*
X267795Y100860D02*Y99060D01*
X265826Y100860D02*Y99060D01*
X263858Y100860D02*Y99060D01*
X261889Y100860D02*Y99060D01*
X259921Y100860D02*Y99060D01*
X257952Y100860D02*Y99060D01*
X255984Y100860D02*Y99060D01*
X254016Y100860D02*Y99060D01*
X252048Y100860D02*Y99060D01*
X250079Y100860D02*Y99060D01*
X248111Y100860D02*Y99060D01*
X246142Y100860D02*Y99060D01*
X244174Y100860D02*Y99060D01*
X242205Y100860D02*Y99060D01*
X240237Y100860D02*Y99060D01*
X238268Y100860D02*Y99060D01*
X236300Y100860D02*Y99060D01*
X234331Y100860D02*Y99060D01*
X232363Y100860D02*Y99060D01*
X230394Y100860D02*Y99060D01*
X228426Y100860D02*Y99060D01*
G54D84*X291457Y74393D02*Y73607D01*
X298543Y74393D02*Y73607D01*
X405457Y50393D02*Y49607D01*
X412543Y50393D02*Y49607D01*
M02*
