G04 start of page 5 for group -4063 idx -4063 *
G04 Title: (unknown), componentmask *
G04 Creator: pcb 20140316 *
G04 CreationDate: Wed 18 Feb 2015 05:35:01 PM GMT UTC *
G04 For: ndholmes *
G04 Format: Gerber/RS-274X *
G04 PCB-Dimensions (mil): 5250.00 1700.00 *
G04 PCB-Coordinate-Origin: lower left *
%MOIN*%
%FSLAX25Y25*%
%LNTOPMASK*%
%ADD73R,0.0420X0.0420*%
%ADD72R,0.0176X0.0176*%
%ADD71R,0.0550X0.0550*%
%ADD70R,0.0490X0.0490*%
%ADD69R,0.0572X0.0572*%
%ADD68C,0.0660*%
%ADD67C,0.2997*%
%ADD66C,0.0900*%
%ADD65C,0.0001*%
%ADD64C,0.0750*%
%ADD63C,0.1500*%
%ADD62C,0.0860*%
G54D62*X150500Y147500D03*
G54D63*X140500Y158500D03*
G54D62*X130500Y147500D03*
X30500D03*
X10500D03*
X50500D03*
G54D64*X93000Y123500D03*
X88000Y133500D03*
X83000Y123500D03*
X78000Y133500D03*
X73000Y123500D03*
X68000Y133500D03*
G54D63*X100500Y158500D03*
X60500D03*
G54D62*X70500Y147500D03*
X110500D03*
X90500D03*
G54D65*G36*
X46200Y26800D02*Y18200D01*
X54800D01*
Y26800D01*
X46200D01*
G37*
G54D62*X10500Y22500D03*
X30500D03*
G54D65*G36*
X66200Y26800D02*Y18200D01*
X74800D01*
Y26800D01*
X66200D01*
G37*
G54D62*X250500Y22500D03*
X230500D03*
X270500D03*
X90500D03*
X110500D03*
X170500D03*
X190500D03*
X130500D03*
X150500D03*
X210500D03*
G54D64*X173000Y123500D03*
G54D63*X180500Y158500D03*
G54D66*X186500Y86500D03*
X176500D03*
G54D65*G36*
X162000Y91000D02*Y82000D01*
X171000D01*
Y91000D01*
X162000D01*
G37*
G54D62*X170500Y147500D03*
G54D64*X168000Y133500D03*
X158000D03*
X148000D03*
X163000Y123500D03*
X153000D03*
G54D62*X230500Y147500D03*
X210500D03*
X270500D03*
X250500D03*
G54D63*X260500Y158500D03*
G54D62*X290500Y147500D03*
G54D64*X288000Y133500D03*
X283000Y123500D03*
X278000Y133500D03*
X273000Y123500D03*
X268000Y133500D03*
G54D62*X190500Y147500D03*
G54D65*G36*
X18200Y99300D02*Y90700D01*
X26800D01*
Y99300D01*
X18200D01*
G37*
G54D67*X57000Y85000D03*
G54D62*X22500Y75000D03*
G54D64*X68000Y46500D03*
X73000Y36500D03*
X78000Y46500D03*
X83000Y36500D03*
X88000Y46500D03*
X93000Y36500D03*
G54D63*X60500Y11500D03*
X100500D03*
X140500D03*
X180500D03*
G54D64*X148000Y46500D03*
X153000Y36500D03*
X158000Y46500D03*
X163000Y36500D03*
X168000Y46500D03*
X173000Y36500D03*
G54D62*X470500Y147500D03*
X450500D03*
X510500D03*
X490500D03*
X430500D03*
X410500D03*
X502500Y95000D03*
Y115000D03*
Y55000D03*
Y75000D03*
X490500Y22500D03*
G54D67*X467000Y85000D03*
G54D65*G36*
X456200Y54300D02*Y47700D01*
X462800D01*
Y54300D01*
X456200D01*
G37*
G54D68*X469500Y51000D03*
G54D65*G36*
X456200Y64300D02*Y57700D01*
X462800D01*
Y64300D01*
X456200D01*
G37*
G54D68*X469500Y61000D03*
G54D63*X423000Y65000D03*
Y105000D03*
G54D65*G36*
X456200Y112800D02*Y106200D01*
X462800D01*
Y112800D01*
X456200D01*
G37*
G54D68*X469500Y109500D03*
G54D62*X310500Y22500D03*
X330500D03*
X350500D03*
X370500D03*
G54D63*X380500Y11500D03*
G54D62*X390500Y22500D03*
X290500D03*
G54D64*X268000Y46500D03*
X273000Y36500D03*
X278000Y46500D03*
X283000Y36500D03*
X288000Y46500D03*
X293000Y36500D03*
G54D63*X260500Y11500D03*
X300500D03*
X340500D03*
G54D62*X510500Y22500D03*
X450500D03*
X470500D03*
X410500D03*
X430500D03*
G54D64*X348000Y46500D03*
X353000Y36500D03*
X358000Y46500D03*
X363000Y36500D03*
X368000Y46500D03*
X373000Y36500D03*
G54D62*X390500Y147500D03*
G54D63*X380500Y158500D03*
G54D62*X370500Y147500D03*
G54D64*X368000Y133500D03*
X358000D03*
X348000D03*
G54D62*X350500Y147500D03*
X330500D03*
X310500D03*
G54D63*X340500Y158500D03*
X300500D03*
G54D64*X373000Y123500D03*
X363000D03*
X353000D03*
X293000D03*
X320000Y72500D03*
Y82500D03*
Y92500D03*
X330000Y77500D03*
Y87500D03*
Y97500D03*
G54D63*X355000Y65000D03*
Y105000D03*
G54D64*X388000Y72500D03*
X398000Y77500D03*
X388000Y82500D03*
X398000Y87500D03*
X388000Y92500D03*
X398000Y97500D03*
G54D69*X207319Y80595D02*X209681D01*
X207319Y92405D02*X209681D01*
X208107Y102457D02*X208893D01*
X208107Y109543D02*X208893D01*
G54D70*X130500Y102500D02*Y93500D01*
G54D71*X197700Y68500D02*X201300D01*
X197700Y58500D02*X201300D01*
G54D69*X185607Y65543D02*X186393D01*
X185607Y58457D02*X186393D01*
X162745Y58595D02*X168255D01*
G54D70*X130500Y77000D02*Y67900D01*
G54D69*X162745Y70405D02*X168255D01*
G54D71*X213700Y58500D02*X217300D01*
X443000Y50800D02*Y47200D01*
X433000Y50800D02*Y47200D01*
G54D69*X405457Y50393D02*Y49607D01*
X412543Y50393D02*Y49607D01*
G54D72*X255984Y72402D02*Y67678D01*
X257952Y72402D02*Y67678D01*
X259921Y72402D02*Y67678D01*
X255984Y70940D02*Y69140D01*
X257952Y70940D02*Y69140D01*
X259921Y70940D02*Y69140D01*
X261889Y72402D02*Y67678D01*
X263858Y72402D02*Y67678D01*
X261889Y70940D02*Y69140D01*
X263858Y70940D02*Y69140D01*
X269763Y72402D02*Y67678D01*
X271732Y72402D02*Y67678D01*
X273700Y72402D02*Y67678D01*
X269763Y70940D02*Y69140D01*
X271732Y70940D02*Y69140D01*
X273700Y70940D02*Y69140D01*
X275669Y72402D02*Y67678D01*
X277637Y72402D02*Y67678D01*
X275669Y70940D02*Y69140D01*
X277637Y70940D02*Y69140D01*
X265826Y72402D02*Y67678D01*
X267795Y72402D02*Y67678D01*
X265826Y70940D02*Y69140D01*
X267795Y70940D02*Y69140D01*
X279606Y72402D02*Y67678D01*
X281574Y72402D02*Y67678D01*
X279606Y70940D02*Y69140D01*
X281574Y70940D02*Y69140D01*
X228426Y70940D02*Y69140D01*
X230394Y70940D02*Y69140D01*
X232363Y70940D02*Y69140D01*
X234331Y70940D02*Y69140D01*
X236300Y70940D02*Y69140D01*
X238268Y70940D02*Y69140D01*
X240237Y70940D02*Y69140D01*
X242205Y70940D02*Y69140D01*
X244174Y70940D02*Y69140D01*
X246142Y70940D02*Y69140D01*
X248111Y70940D02*Y69140D01*
X250079Y70940D02*Y69140D01*
X252048Y70940D02*Y69140D01*
X254016Y70940D02*Y69140D01*
X240237Y72402D02*Y67678D01*
X242205Y72402D02*Y67678D01*
X244174Y72402D02*Y67678D01*
X246142Y72402D02*Y67678D01*
X248111Y72402D02*Y67678D01*
X250079Y72402D02*Y67678D01*
X252048Y72402D02*Y67678D01*
X254016Y72402D02*Y67678D01*
G54D69*X291457Y96393D02*Y95607D01*
X298543Y96393D02*Y95607D01*
G54D72*X281574Y102322D02*Y97598D01*
Y100860D02*Y99060D01*
X279606Y102322D02*Y97598D01*
Y100860D02*Y99060D01*
X277637Y102322D02*Y97598D01*
X275669Y102322D02*Y97598D01*
X273700Y102322D02*Y97598D01*
X277637Y100860D02*Y99060D01*
X275669Y100860D02*Y99060D01*
X273700Y100860D02*Y99060D01*
X271732Y102322D02*Y97598D01*
X269763Y102322D02*Y97598D01*
X271732Y100860D02*Y99060D01*
X269763Y100860D02*Y99060D01*
X267795Y102322D02*Y97598D01*
X265826Y102322D02*Y97598D01*
X267795Y100860D02*Y99060D01*
X265826Y100860D02*Y99060D01*
X263858Y102322D02*Y97598D01*
X261889Y102322D02*Y97598D01*
X259921Y102322D02*Y97598D01*
X263858Y100860D02*Y99060D01*
X261889Y100860D02*Y99060D01*
X259921Y100860D02*Y99060D01*
G54D69*X291457Y85393D02*Y84607D01*
X298543Y85393D02*Y84607D01*
X291457Y74393D02*Y73607D01*
X298543Y74393D02*Y73607D01*
G54D71*X213700Y68500D02*X217300D01*
G54D72*X228426Y72402D02*Y67678D01*
X230394Y72402D02*Y67678D01*
X232363Y72402D02*Y67678D01*
X234331Y72402D02*Y67678D01*
X236300Y72402D02*Y67678D01*
X238268Y72402D02*Y67678D01*
G54D70*X92500Y77000D02*Y67900D01*
G54D73*X36400Y116100D02*Y114900D01*
X23500Y116100D02*Y114900D01*
G54D71*X443000Y122800D02*Y119200D01*
X433000Y122800D02*Y119200D01*
G54D72*X244174Y102322D02*Y97598D01*
X242205Y102322D02*Y97598D01*
X240237Y102322D02*Y97598D01*
X244174Y100860D02*Y99060D01*
X242205Y100860D02*Y99060D01*
X240237Y100860D02*Y99060D01*
X232363Y102322D02*Y97598D01*
X230394Y102322D02*Y97598D01*
X228426Y102322D02*Y97598D01*
X232363Y100860D02*Y99060D01*
X230394Y100860D02*Y99060D01*
X228426Y100860D02*Y99060D01*
X238268Y102322D02*Y97598D01*
X236300Y102322D02*Y97598D01*
X234331Y102322D02*Y97598D01*
X238268Y100860D02*Y99060D01*
X236300Y100860D02*Y99060D01*
X234331Y100860D02*Y99060D01*
G54D70*X92500Y102500D02*Y93500D01*
G54D72*X257952Y102322D02*Y97598D01*
X255984Y102322D02*Y97598D01*
X257952Y100860D02*Y99060D01*
X255984Y100860D02*Y99060D01*
X250079Y102322D02*Y97598D01*
Y100860D02*Y99060D01*
X248111Y102322D02*Y97598D01*
Y100860D02*Y99060D01*
X246142Y102322D02*Y97598D01*
Y100860D02*Y99060D01*
X254016Y102322D02*Y97598D01*
X252048Y102322D02*Y97598D01*
X254016Y100860D02*Y99060D01*
X252048Y100860D02*Y99060D01*
M02*
