G04 start of page 7 for group -4079 idx -4079 *
G04 Title: (unknown), topsilk *
G04 Creator: pcb 20140316 *
G04 CreationDate: Wed 18 Feb 2015 05:35:01 PM GMT UTC *
G04 For: ndholmes *
G04 Format: Gerber/RS-274X *
G04 PCB-Dimensions (mil): 5250.00 1700.00 *
G04 PCB-Coordinate-Origin: lower left *
%MOIN*%
%FSLAX25Y25*%
%LNTOPSILK*%
%ADD82C,0.0200*%
%ADD81C,0.0100*%
G54D81*X524500Y500D02*Y169500D01*
X449500Y49000D02*X452500D01*
X451000Y50500D02*Y47500D01*
Y122500D02*Y119500D01*
X449500Y121000D02*X452500D01*
X500Y500D02*X524500D01*
X500Y169500D02*Y500D01*
X216500Y94500D02*Y91500D01*
X215000Y93000D02*X218000D01*
X207500Y75500D02*Y72500D01*
X500Y169500D02*X524500D01*
X206000Y74000D02*X209000D01*
X218000Y7000D02*X220000D01*
X218000D02*Y5000D01*
X218500Y5500D01*
X219500D01*
X220000Y5000D01*
Y3500D01*
X219500Y3000D02*X220000Y3500D01*
X218500Y3000D02*X219500D01*
X218000Y3500D02*X218500Y3000D01*
X221200Y7000D02*Y4000D01*
X222200Y3000D01*
X223200Y4000D01*
Y7000D02*Y4000D01*
X247500Y3000D02*X249500D01*
X250000Y3500D01*
Y4500D02*Y3500D01*
X249500Y5000D02*X250000Y4500D01*
X248000Y5000D02*X249500D01*
X248000Y7000D02*Y3000D01*
X247500Y7000D02*X249500D01*
X250000Y6500D01*
Y5500D01*
X249500Y5000D02*X250000Y5500D01*
X251200Y3500D02*X251700Y3000D01*
X251200Y6500D02*Y3500D01*
Y6500D02*X251700Y7000D01*
X252700D01*
X253200Y6500D01*
Y3500D01*
X252700Y3000D02*X253200Y3500D01*
X251700Y3000D02*X252700D01*
X251200Y4000D02*X253200Y6000D01*
X267500Y3000D02*X269500D01*
X270000Y3500D01*
Y4500D02*Y3500D01*
X269500Y5000D02*X270000Y4500D01*
X268000Y5000D02*X269500D01*
X268000Y7000D02*Y3000D01*
X267500Y7000D02*X269500D01*
X270000Y6500D01*
Y5500D01*
X269500Y5000D02*X270000Y5500D01*
X271700Y3000D02*X272700D01*
X272200Y7000D02*Y3000D01*
X271200Y6000D02*X272200Y7000D01*
X287500Y3000D02*X289500D01*
X290000Y3500D01*
Y4500D02*Y3500D01*
X289500Y5000D02*X290000Y4500D01*
X288000Y5000D02*X289500D01*
X288000Y7000D02*Y3000D01*
X287500Y7000D02*X289500D01*
X290000Y6500D01*
Y5500D01*
X289500Y5000D02*X290000Y5500D01*
X291200Y6500D02*X291700Y7000D01*
X293200D01*
X293700Y6500D01*
Y5500D01*
X291200Y3000D02*X293700Y5500D01*
X291200Y3000D02*X293700D01*
X107500Y6500D02*Y3000D01*
Y6500D02*X108000Y7000D01*
X109500D01*
X110000Y6500D01*
Y3000D01*
X107500Y5000D02*X110000D01*
X111200Y6500D02*X111700Y7000D01*
X112700D01*
X113200Y6500D01*
Y3500D01*
X112700Y3000D02*X113200Y3500D01*
X111700Y3000D02*X112700D01*
X111200Y3500D02*X111700Y3000D01*
Y5000D02*X113200D01*
X167500Y6500D02*Y3000D01*
Y6500D02*X168000Y7000D01*
X169500D01*
X170000Y6500D01*
Y3000D01*
X167500Y5000D02*X170000D01*
X172700Y7000D02*X173200Y6500D01*
X171700Y7000D02*X172700D01*
X171200Y6500D02*X171700Y7000D01*
X171200Y6500D02*Y3500D01*
X171700Y3000D01*
X172700Y5000D02*X173200Y4500D01*
X171200Y5000D02*X172700D01*
X171700Y3000D02*X172700D01*
X173200Y3500D01*
Y4500D02*Y3500D01*
X187500Y6500D02*Y3000D01*
Y6500D02*X188000Y7000D01*
X189500D01*
X190000Y6500D01*
Y3000D01*
X187500Y5000D02*X190000D01*
X191200Y3000D02*X193700Y5500D01*
Y7000D02*Y5500D01*
X191200Y7000D02*X193700D01*
X127500Y6500D02*Y3000D01*
Y6500D02*X128000Y7000D01*
X129500D01*
X130000Y6500D01*
Y3000D01*
X127500Y5000D02*X130000D01*
X131200D02*X133200Y7000D01*
X131200Y5000D02*X133700D01*
X133200Y7000D02*Y3000D01*
X147500Y6500D02*Y3000D01*
Y6500D02*X148000Y7000D01*
X149500D01*
X150000Y6500D01*
Y3000D01*
X147500Y5000D02*X150000D01*
X151200Y7000D02*X153200D01*
X151200D02*Y5000D01*
X151700Y5500D01*
X152700D01*
X153200Y5000D01*
Y3500D01*
X152700Y3000D02*X153200Y3500D01*
X151700Y3000D02*X152700D01*
X151200Y3500D02*X151700Y3000D01*
X87500Y6500D02*Y3000D01*
Y6500D02*X88000Y7000D01*
X89500D01*
X90000Y6500D01*
Y3000D01*
X87500Y5000D02*X90000D01*
X91200Y6500D02*X91700Y7000D01*
X93200D01*
X93700Y6500D01*
Y5500D01*
X91200Y3000D02*X93700Y5500D01*
X91200Y3000D02*X93700D01*
X47500Y6500D02*Y3000D01*
Y6500D02*X48000Y7000D01*
X49500D01*
X50000Y6500D01*
Y3000D01*
X47500Y5000D02*X50000D01*
X51200Y3500D02*X51700Y3000D01*
X51200Y6500D02*Y3500D01*
Y6500D02*X51700Y7000D01*
X52700D01*
X53200Y6500D01*
Y3500D01*
X52700Y3000D02*X53200Y3500D01*
X51700Y3000D02*X52700D01*
X51200Y4000D02*X53200Y6000D01*
X67500Y6500D02*Y3000D01*
Y6500D02*X68000Y7000D01*
X69500D01*
X70000Y6500D01*
Y3000D01*
X67500Y5000D02*X70000D01*
X71700Y3000D02*X72700D01*
X72200Y7000D02*Y3000D01*
X71200Y6000D02*X72200Y7000D01*
X17500D02*X18000Y6500D01*
X16000Y7000D02*X17500D01*
X15500Y6500D02*X16000Y7000D01*
X15500Y6500D02*Y3500D01*
X16000Y3000D01*
X17500D01*
X18000Y3500D01*
Y4500D02*Y3500D01*
X17500Y5000D02*X18000Y4500D01*
X16500Y5000D02*X17500D01*
X19200Y7000D02*Y3000D01*
Y7000D02*Y6500D01*
X21700Y4000D01*
Y7000D02*Y3000D01*
X23400Y7000D02*Y3000D01*
X24900Y7000D02*X25400Y6500D01*
Y3500D01*
X24900Y3000D02*X25400Y3500D01*
X22900Y3000D02*X24900D01*
X22900Y7000D02*X24900D01*
X7000Y78000D02*X6500Y77500D01*
X7000Y79500D02*Y78000D01*
X6500Y80000D02*X7000Y79500D01*
X3500Y80000D02*X6500D01*
X3500D02*X3000Y79500D01*
Y78000D01*
X3500Y77500D01*
X4500D01*
X5000Y78000D02*X4500Y77500D01*
X5000Y79000D02*Y78000D01*
X3000Y76300D02*X7000D01*
X6500D02*X7000D01*
X6500D02*X4000Y73800D01*
X3000D02*X7000D01*
X3000Y72100D02*X7000D01*
Y70600D02*X6500Y70100D01*
X3500D02*X6500D01*
X3000Y70600D02*X3500Y70100D01*
X3000Y72600D02*Y70600D01*
X7000Y72600D02*Y70600D01*
X4000Y99000D02*X7000D01*
X4000D02*X3000Y98000D01*
X4000Y97000D01*
X7000D01*
Y95800D02*Y94800D01*
X3000Y95300D02*X7000D01*
X3000Y95800D02*Y94800D01*
Y93600D02*X7000D01*
X6500D02*X7000D01*
X6500D02*X4000Y91100D01*
X3000D02*X7000D01*
X4000Y44500D02*X5500D01*
X3500Y45000D02*X4000Y44500D01*
X3500Y48000D02*Y45000D01*
Y48000D02*X4000Y48500D01*
X5500D01*
X7200Y44500D02*X8700D01*
X6700Y45000D02*X7200Y44500D01*
X6700Y48000D02*Y45000D01*
Y48000D02*X7200Y48500D01*
X8700D01*
X11700Y44500D02*X13700D01*
X14200Y45000D01*
Y46000D02*Y45000D01*
X13700Y46500D02*X14200Y46000D01*
X12200Y46500D02*X13700D01*
X12200Y48500D02*Y44500D01*
X11700Y48500D02*X13700D01*
X14200Y48000D01*
Y47000D01*
X13700Y46500D02*X14200Y47000D01*
X15400Y48500D02*Y48000D01*
X16400Y47000D01*
X17400Y48000D01*
Y48500D02*Y48000D01*
X16400Y47000D02*Y44500D01*
X18600Y46500D02*X20600D01*
X23800Y48500D02*X24300Y48000D01*
X22300Y48500D02*X23800D01*
X21800Y48000D02*X22300Y48500D01*
X21800Y48000D02*Y47000D01*
X22300Y46500D01*
X23800D01*
X24300Y46000D01*
Y45000D01*
X23800Y44500D02*X24300Y45000D01*
X22300Y44500D02*X23800D01*
X21800Y45000D02*X22300Y44500D01*
X25500Y48000D02*Y44500D01*
Y48000D02*X26000Y48500D01*
X27500D01*
X28000Y48000D01*
Y44500D01*
X25500Y46500D02*X28000D01*
X32800Y45000D02*X33300Y44500D01*
X32800Y48000D02*X33300Y48500D01*
X32800Y48000D02*Y45000D01*
X35000Y44500D02*X36500D01*
X34500Y45000D02*X35000Y44500D01*
X34500Y48000D02*Y45000D01*
Y48000D02*X35000Y48500D01*
X36500D01*
X37700D02*X38200Y48000D01*
Y45000D01*
X37700Y44500D02*X38200Y45000D01*
X41200Y48000D02*X41700Y48500D01*
X43200D01*
X43700Y48000D01*
Y47000D01*
X41200Y44500D02*X43700Y47000D01*
X41200Y44500D02*X43700D01*
X44900Y45000D02*X45400Y44500D01*
X44900Y48000D02*Y45000D01*
Y48000D02*X45400Y48500D01*
X46400D01*
X46900Y48000D01*
Y45000D01*
X46400Y44500D02*X46900Y45000D01*
X45400Y44500D02*X46400D01*
X44900Y45500D02*X46900Y47500D01*
X48600Y44500D02*X49600D01*
X49100Y48500D02*Y44500D01*
X48100Y47500D02*X49100Y48500D01*
X50800Y48000D02*X51300Y48500D01*
X52300D01*
X52800Y48000D01*
Y45000D01*
X52300Y44500D02*X52800Y45000D01*
X51300Y44500D02*X52300D01*
X50800Y45000D02*X51300Y44500D01*
Y46500D02*X52800D01*
X3000Y59500D02*X4000D01*
X3500D02*Y55500D01*
X3000D02*X4000D01*
X5200Y57000D02*Y56000D01*
Y57000D02*X5700Y57500D01*
X6700D01*
X7200Y57000D01*
Y56000D01*
X6700Y55500D02*X7200Y56000D01*
X5700Y55500D02*X6700D01*
X5200Y56000D02*X5700Y55500D01*
X8400Y57500D02*Y56000D01*
X8900Y55500D01*
X9400D01*
X9900Y56000D01*
Y57500D02*Y56000D01*
X10400Y55500D01*
X10900D01*
X11400Y56000D01*
Y57500D02*Y56000D01*
X14100Y57500D02*X14600Y57000D01*
X13100Y57500D02*X14100D01*
X12600Y57000D02*X13100Y57500D01*
X12600Y57000D02*Y56000D01*
X13100Y55500D01*
X14600Y57500D02*Y56000D01*
X15100Y55500D01*
X13100D02*X14100D01*
X14600Y56000D01*
X20100Y59500D02*X20600Y59000D01*
X18600Y59500D02*X20100D01*
X18100Y59000D02*X18600Y59500D01*
X18100Y59000D02*Y58000D01*
X18600Y57500D01*
X20100D01*
X20600Y57000D01*
Y56000D01*
X20100Y55500D02*X20600Y56000D01*
X18600Y55500D02*X20100D01*
X18100Y56000D02*X18600Y55500D01*
X22300Y57500D02*X23800D01*
X21800Y57000D02*X22300Y57500D01*
X21800Y57000D02*Y56000D01*
X22300Y55500D01*
X23800D01*
X26500Y57500D02*X27000Y57000D01*
X25500Y57500D02*X26500D01*
X25000Y57000D02*X25500Y57500D01*
X25000Y57000D02*Y56000D01*
X25500Y55500D01*
X27000Y57500D02*Y56000D01*
X27500Y55500D01*
X25500D02*X26500D01*
X27000Y56000D01*
X28700Y59500D02*Y56000D01*
X29200Y55500D01*
X30700D02*X32200D01*
X30200Y56000D02*X30700Y55500D01*
X30200Y57000D02*Y56000D01*
Y57000D02*X30700Y57500D01*
X31700D01*
X32200Y57000D01*
X30200Y56500D02*X32200D01*
Y57000D02*Y56500D01*
X35400Y59500D02*Y55500D01*
X34900D02*X35400Y56000D01*
X33900Y55500D02*X34900D01*
X33400Y56000D02*X33900Y55500D01*
X33400Y57000D02*Y56000D01*
Y57000D02*X33900Y57500D01*
X34900D01*
X35400Y57000D01*
X38400Y57500D02*X39900D01*
X38400Y55500D02*X40400D01*
X38400Y59500D02*Y55500D01*
Y59500D02*X40400D01*
X42100Y57000D02*Y55500D01*
Y57000D02*X42600Y57500D01*
X43100D01*
X43600Y57000D01*
Y55500D01*
X41600Y57500D02*X42100Y57000D01*
X46300Y57500D02*X46800Y57000D01*
X45300Y57500D02*X46300D01*
X44800Y57000D02*X45300Y57500D01*
X44800Y57000D02*Y56000D01*
X45300Y55500D01*
X46300D01*
X46800Y56000D01*
X44800Y54500D02*X45300Y54000D01*
X46300D01*
X46800Y54500D01*
Y57500D02*Y54500D01*
X48000Y58500D02*Y58000D01*
Y57000D02*Y55500D01*
X49500Y57000D02*Y55500D01*
Y57000D02*X50000Y57500D01*
X50500D01*
X51000Y57000D01*
Y55500D01*
X49000Y57500D02*X49500Y57000D01*
X52700Y55500D02*X54200D01*
X52200Y56000D02*X52700Y55500D01*
X52200Y57000D02*Y56000D01*
Y57000D02*X52700Y57500D01*
X53700D01*
X54200Y57000D01*
X52200Y56500D02*X54200D01*
Y57000D02*Y56500D01*
X55900Y55500D02*X57400D01*
X55400Y56000D02*X55900Y55500D01*
X55400Y57000D02*Y56000D01*
Y57000D02*X55900Y57500D01*
X56900D01*
X57400Y57000D01*
X55400Y56500D02*X57400D01*
Y57000D02*Y56500D01*
X59100Y57000D02*Y55500D01*
Y57000D02*X59600Y57500D01*
X60600D01*
X58600D02*X59100Y57000D01*
X61800Y58500D02*Y58000D01*
Y57000D02*Y55500D01*
X63300Y57000D02*Y55500D01*
Y57000D02*X63800Y57500D01*
X64300D01*
X64800Y57000D01*
Y55500D01*
X62800Y57500D02*X63300Y57000D01*
X67500Y57500D02*X68000Y57000D01*
X66500Y57500D02*X67500D01*
X66000Y57000D02*X66500Y57500D01*
X66000Y57000D02*Y56000D01*
X66500Y55500D01*
X67500D01*
X68000Y56000D01*
X66000Y54500D02*X66500Y54000D01*
X67500D01*
X68000Y54500D01*
Y57500D02*Y54500D01*
X353000Y167000D02*Y163000D01*
X351500D02*X351000Y163500D01*
Y166500D02*Y163500D01*
X351500Y167000D02*X351000Y166500D01*
X351500Y167000D02*X353500D01*
X351500Y163000D02*X353500D01*
X349800Y163500D02*X349300Y163000D01*
X347800D02*X349300D01*
X347800D02*X347300Y163500D01*
Y164500D02*Y163500D01*
X349800Y167000D02*X347300Y164500D01*
Y167000D02*X349800D01*
X393000D02*Y163000D01*
X391500D02*X391000Y163500D01*
Y166500D02*Y163500D01*
X391500Y167000D02*X391000Y166500D01*
X391500Y167000D02*X393500D01*
X391500Y163000D02*X393500D01*
X389800Y166500D02*X389300Y167000D01*
X389800Y166500D02*Y163500D01*
X389300Y163000D01*
X388300D02*X389300D01*
X388300D02*X387800Y163500D01*
Y166500D02*Y163500D01*
X388300Y167000D02*X387800Y166500D01*
X388300Y167000D02*X389300D01*
X389800Y166000D02*X387800Y164000D01*
X373000Y167000D02*Y163000D01*
X371500D02*X371000Y163500D01*
Y166500D02*Y163500D01*
X371500Y167000D02*X371000Y166500D01*
X371500Y167000D02*X373500D01*
X371500Y163000D02*X373500D01*
X368300Y167000D02*X369300D01*
X368800D02*Y163000D01*
X369800Y164000D02*X368800Y163000D01*
X511500Y167000D02*X513000D01*
X513500Y166500D02*X513000Y167000D01*
X513500Y166500D02*Y163500D01*
X513000Y163000D01*
X511500D02*X513000D01*
X510300Y165000D02*X508300Y163000D01*
X507800Y165000D02*X510300D01*
X508300Y167000D02*Y163000D01*
X491500Y167000D02*X493000D01*
X493500Y166500D02*X493000Y167000D01*
X493500Y166500D02*Y163500D01*
X493000Y163000D01*
X491500D02*X493000D01*
X488300D02*X490300D01*
Y165000D02*Y163000D01*
Y165000D02*X489800Y164500D01*
X488800D02*X489800D01*
X488800D02*X488300Y165000D01*
Y166500D02*Y165000D01*
X488800Y167000D02*X488300Y166500D01*
X488800Y167000D02*X489800D01*
X490300Y166500D02*X489800Y167000D01*
X423500Y163000D02*X423000Y163500D01*
X423500Y163000D02*X425000D01*
X425500Y163500D02*X425000Y163000D01*
X425500Y166500D02*Y163500D01*
Y166500D02*X425000Y167000D01*
X423500D02*X425000D01*
X423500D02*X423000Y166500D01*
Y165500D01*
X423500Y165000D02*X423000Y165500D01*
X423500Y165000D02*X424500D01*
X421800Y167000D02*Y163000D01*
Y163500D02*Y163000D01*
Y163500D02*X419300Y166000D01*
Y167000D02*Y163000D01*
X417600Y167000D02*Y163000D01*
X416100D02*X415600Y163500D01*
Y166500D02*Y163500D01*
X416100Y167000D02*X415600Y166500D01*
X416100Y167000D02*X418100D01*
X416100Y163000D02*X418100D01*
X476500Y111000D02*Y107500D01*
Y111000D02*X477000Y111500D01*
X478500D01*
X479000Y111000D01*
Y107500D01*
X476500Y109500D02*X479000D01*
X480200Y108000D02*X480700Y107500D01*
X480200Y111000D02*Y108000D01*
Y111000D02*X480700Y111500D01*
X481700D01*
X482200Y111000D01*
Y108000D01*
X481700Y107500D02*X482200Y108000D01*
X480700Y107500D02*X481700D01*
X480200Y108500D02*X482200Y110500D01*
X471500Y167000D02*X473000D01*
X473500Y166500D02*X473000Y167000D01*
X473500Y166500D02*Y163500D01*
X473000Y163000D01*
X471500D02*X473000D01*
X468800D02*X468300Y163500D01*
X468800Y163000D02*X469800D01*
X470300Y163500D02*X469800Y163000D01*
X470300Y166500D02*Y163500D01*
Y166500D02*X469800Y167000D01*
X468800Y165000D02*X468300Y165500D01*
X468800Y165000D02*X470300D01*
X468800Y167000D02*X469800D01*
X468800D02*X468300Y166500D01*
Y165500D01*
X451500Y167000D02*X453000D01*
X453500Y166500D02*X453000Y167000D01*
X453500Y166500D02*Y163500D01*
X453000Y163000D01*
X451500D02*X453000D01*
X450300Y167000D02*X447800Y164500D01*
Y163000D01*
X450300D01*
X518000Y104500D02*Y102500D01*
X520000D01*
X519500Y103000D01*
Y104000D02*Y103000D01*
Y104000D02*X520000Y104500D01*
X521500D01*
X522000Y104000D02*X521500Y104500D01*
X522000Y104000D02*Y103000D01*
X521500Y102500D02*X522000Y103000D01*
X518000Y105700D02*X521000D01*
X522000Y106700D01*
X521000Y107700D01*
X518000D02*X521000D01*
X307500Y3000D02*X309500D01*
X310000Y3500D01*
Y4500D02*Y3500D01*
X309500Y5000D02*X310000Y4500D01*
X308000Y5000D02*X309500D01*
X308000Y7000D02*Y3000D01*
X307500Y7000D02*X309500D01*
X310000Y6500D01*
Y5500D01*
X309500Y5000D02*X310000Y5500D01*
X311200Y6500D02*X311700Y7000D01*
X312700D01*
X313200Y6500D01*
Y3500D01*
X312700Y3000D02*X313200Y3500D01*
X311700Y3000D02*X312700D01*
X311200Y3500D02*X311700Y3000D01*
Y5000D02*X313200D01*
X367500Y3000D02*X369500D01*
X370000Y3500D01*
Y4500D02*Y3500D01*
X369500Y5000D02*X370000Y4500D01*
X368000Y5000D02*X369500D01*
X368000Y7000D02*Y3000D01*
X367500Y7000D02*X369500D01*
X370000Y6500D01*
Y5500D01*
X369500Y5000D02*X370000Y5500D01*
X372700Y7000D02*X373200Y6500D01*
X371700Y7000D02*X372700D01*
X371200Y6500D02*X371700Y7000D01*
X371200Y6500D02*Y3500D01*
X371700Y3000D01*
X372700Y5000D02*X373200Y4500D01*
X371200Y5000D02*X372700D01*
X371700Y3000D02*X372700D01*
X373200Y3500D01*
Y4500D02*Y3500D01*
X327500Y3000D02*X329500D01*
X330000Y3500D01*
Y4500D02*Y3500D01*
X329500Y5000D02*X330000Y4500D01*
X328000Y5000D02*X329500D01*
X328000Y7000D02*Y3000D01*
X327500Y7000D02*X329500D01*
X330000Y6500D01*
Y5500D01*
X329500Y5000D02*X330000Y5500D01*
X331200Y5000D02*X333200Y7000D01*
X331200Y5000D02*X333700D01*
X333200Y7000D02*Y3000D01*
X347500D02*X349500D01*
X350000Y3500D01*
Y4500D02*Y3500D01*
X349500Y5000D02*X350000Y4500D01*
X348000Y5000D02*X349500D01*
X348000Y7000D02*Y3000D01*
X347500Y7000D02*X349500D01*
X350000Y6500D01*
Y5500D01*
X349500Y5000D02*X350000Y5500D01*
X351200Y7000D02*X353200D01*
X351200D02*Y5000D01*
X351700Y5500D01*
X352700D01*
X353200Y5000D01*
Y3500D01*
X352700Y3000D02*X353200Y3500D01*
X351700Y3000D02*X352700D01*
X351200Y3500D02*X351700Y3000D01*
X476500Y62500D02*Y59000D01*
Y62500D02*X477000Y63000D01*
X478500D01*
X479000Y62500D01*
Y59000D01*
X476500Y61000D02*X479000D01*
X480700Y59000D02*X481700D01*
X481200Y63000D02*Y59000D01*
X480200Y62000D02*X481200Y63000D01*
X518000Y64500D02*Y62500D01*
X520000D01*
X519500Y63000D01*
Y64000D02*Y63000D01*
Y64000D02*X520000Y64500D01*
X521500D01*
X522000Y64000D02*X521500Y64500D01*
X522000Y64000D02*Y63000D01*
X521500Y62500D02*X522000Y63000D01*
X518000Y65700D02*X521000D01*
X522000Y66700D01*
X521000Y67700D01*
X518000D02*X521000D01*
X476500Y52500D02*Y49000D01*
Y52500D02*X477000Y53000D01*
X478500D01*
X479000Y52500D01*
Y49000D01*
X476500Y51000D02*X479000D01*
X480200Y52500D02*X480700Y53000D01*
X482200D01*
X482700Y52500D01*
Y51500D01*
X480200Y49000D02*X482700Y51500D01*
X480200Y49000D02*X482700D01*
X488000Y3000D02*X489500D01*
X487500Y3500D02*X488000Y3000D01*
X487500Y6500D02*Y3500D01*
Y6500D02*X488000Y7000D01*
X489500D01*
X490700Y6500D02*X491200Y7000D01*
X492700D01*
X493200Y6500D01*
Y5500D01*
X490700Y3000D02*X493200Y5500D01*
X490700Y3000D02*X493200D01*
X508000D02*X509500D01*
X507500Y3500D02*X508000Y3000D01*
X507500Y6500D02*Y3500D01*
Y6500D02*X508000Y7000D01*
X509500D01*
X510700Y6500D02*X511200Y7000D01*
X512200D01*
X512700Y6500D01*
Y3500D01*
X512200Y3000D02*X512700Y3500D01*
X511200Y3000D02*X512200D01*
X510700Y3500D02*X511200Y3000D01*
Y5000D02*X512700D01*
X387500Y3000D02*X389500D01*
X390000Y3500D01*
Y4500D02*Y3500D01*
X389500Y5000D02*X390000Y4500D01*
X388000Y5000D02*X389500D01*
X388000Y7000D02*Y3000D01*
X387500Y7000D02*X389500D01*
X390000Y6500D01*
Y5500D01*
X389500Y5000D02*X390000Y5500D01*
X391200Y3000D02*X393700Y5500D01*
Y7000D02*Y5500D01*
X391200Y7000D02*X393700D01*
X417500D02*X418000Y6500D01*
X416000Y7000D02*X417500D01*
X415500Y6500D02*X416000Y7000D01*
X415500Y6500D02*Y3500D01*
X416000Y3000D01*
X417500D01*
X418000Y3500D01*
Y4500D02*Y3500D01*
X417500Y5000D02*X418000Y4500D01*
X416500Y5000D02*X417500D01*
X419200Y7000D02*Y3000D01*
Y7000D02*Y6500D01*
X421700Y4000D01*
Y7000D02*Y3000D01*
X423400Y7000D02*Y3000D01*
X424900Y7000D02*X425400Y6500D01*
Y3500D01*
X424900Y3000D02*X425400Y3500D01*
X422900Y3000D02*X424900D01*
X422900Y7000D02*X424900D01*
X448000Y3000D02*X449500D01*
X447500Y3500D02*X448000Y3000D01*
X447500Y6500D02*Y3500D01*
Y6500D02*X448000Y7000D01*
X449500D01*
X450700Y3500D02*X451200Y3000D01*
X450700Y6500D02*Y3500D01*
Y6500D02*X451200Y7000D01*
X452200D01*
X452700Y6500D01*
Y3500D01*
X452200Y3000D02*X452700Y3500D01*
X451200Y3000D02*X452200D01*
X450700Y4000D02*X452700Y6000D01*
X468000Y3000D02*X469500D01*
X467500Y3500D02*X468000Y3000D01*
X467500Y6500D02*Y3500D01*
Y6500D02*X468000Y7000D01*
X469500D01*
X471200Y3000D02*X472200D01*
X471700Y7000D02*Y3000D01*
X470700Y6000D02*X471700Y7000D01*
X333000Y167000D02*Y163000D01*
X331500D02*X331000Y163500D01*
Y166500D02*Y163500D01*
X331500Y167000D02*X331000Y166500D01*
X331500Y167000D02*X333500D01*
X331500Y163000D02*X333500D01*
X329800Y163500D02*X329300Y163000D01*
X328300D02*X329300D01*
X328300D02*X327800Y163500D01*
Y166500D02*Y163500D01*
X328300Y167000D02*X327800Y166500D01*
X328300Y167000D02*X329300D01*
X329800Y166500D02*X329300Y167000D01*
X327800Y165000D02*X329300D01*
X273000Y167000D02*Y163000D01*
X271500D02*X271000Y163500D01*
Y166500D02*Y163500D01*
X271500Y167000D02*X271000Y166500D01*
X271500Y167000D02*X273500D01*
X271500Y163000D02*X273500D01*
X268300D02*X267800Y163500D01*
X268300Y163000D02*X269300D01*
X269800Y163500D02*X269300Y163000D01*
X269800Y166500D02*Y163500D01*
Y166500D02*X269300Y167000D01*
X268300Y165000D02*X267800Y165500D01*
X268300Y165000D02*X269800D01*
X268300Y167000D02*X269300D01*
X268300D02*X267800Y166500D01*
Y165500D01*
X253000Y167000D02*Y163000D01*
X251500D02*X251000Y163500D01*
Y166500D02*Y163500D01*
X251500Y167000D02*X251000Y166500D01*
X251500Y167000D02*X253500D01*
X251500Y163000D02*X253500D01*
X249800Y167000D02*X247300Y164500D01*
Y163000D01*
X249800D01*
X313000Y167000D02*Y163000D01*
X311500D02*X311000Y163500D01*
Y166500D02*Y163500D01*
X311500Y167000D02*X311000Y166500D01*
X311500Y167000D02*X313500D01*
X311500Y163000D02*X313500D01*
X309800Y165000D02*X307800Y163000D01*
X307300Y165000D02*X309800D01*
X307800Y167000D02*Y163000D01*
X293000Y167000D02*Y163000D01*
X291500D02*X291000Y163500D01*
Y166500D02*Y163500D01*
X291500Y167000D02*X291000Y166500D01*
X291500Y167000D02*X293500D01*
X291500Y163000D02*X293500D01*
X287800D02*X289800D01*
Y165000D02*Y163000D01*
Y165000D02*X289300Y164500D01*
X288300D02*X289300D01*
X288300D02*X287800Y165000D01*
Y166500D02*Y165000D01*
X288300Y167000D02*X287800Y166500D01*
X288300Y167000D02*X289300D01*
X289800Y166500D02*X289300Y167000D01*
X152000Y165000D02*X153500D01*
X151500Y167000D02*X153500D01*
Y163000D01*
X151500D02*X153500D01*
X150300Y163500D02*X149800Y163000D01*
X148300D02*X149800D01*
X148300D02*X147800Y163500D01*
Y164500D02*Y163500D01*
X150300Y167000D02*X147800Y164500D01*
Y167000D02*X150300D01*
X192000Y165000D02*X193500D01*
X191500Y167000D02*X193500D01*
Y163000D01*
X191500D02*X193500D01*
X190300Y166500D02*X189800Y167000D01*
X190300Y166500D02*Y163500D01*
X189800Y163000D01*
X188800D02*X189800D01*
X188800D02*X188300Y163500D01*
Y166500D02*Y163500D01*
X188800Y167000D02*X188300Y166500D01*
X188800Y167000D02*X189800D01*
X190300Y166000D02*X188300Y164000D01*
X172000Y165000D02*X173500D01*
X171500Y167000D02*X173500D01*
Y163000D01*
X171500D02*X173500D01*
X168800Y167000D02*X169800D01*
X169300D02*Y163000D01*
X170300Y164000D02*X169300Y163000D01*
X132000Y165000D02*X133500D01*
X131500Y167000D02*X133500D01*
Y163000D01*
X131500D02*X133500D01*
X130300Y163500D02*X129800Y163000D01*
X128800D02*X129800D01*
X128800D02*X128300Y163500D01*
Y166500D02*Y163500D01*
X128800Y167000D02*X128300Y166500D01*
X128800Y167000D02*X129800D01*
X130300Y166500D02*X129800Y167000D01*
X128300Y165000D02*X129800D01*
X112000D02*X113500D01*
X111500Y167000D02*X113500D01*
Y163000D01*
X111500D02*X113500D01*
X110300Y165000D02*X108300Y163000D01*
X107800Y165000D02*X110300D01*
X108300Y167000D02*Y163000D01*
X92000Y165000D02*X93500D01*
X91500Y167000D02*X93500D01*
Y163000D01*
X91500D02*X93500D01*
X88300D02*X90300D01*
Y165000D02*Y163000D01*
Y165000D02*X89800Y164500D01*
X88800D02*X89800D01*
X88800D02*X88300Y165000D01*
Y166500D02*Y165000D01*
X88800Y167000D02*X88300Y166500D01*
X88800Y167000D02*X89800D01*
X90300Y166500D02*X89800Y167000D01*
X221000Y163000D02*X223000D01*
Y165000D02*Y163000D01*
Y165000D02*X222500Y164500D01*
X221500D02*X222500D01*
X221500D02*X221000Y165000D01*
Y166500D02*Y165000D01*
X221500Y167000D02*X221000Y166500D01*
X221500Y167000D02*X222500D01*
X223000Y166500D02*X222500Y167000D01*
X219800Y166000D02*Y163000D01*
Y166000D02*X218800Y167000D01*
X217800Y166000D01*
Y163000D01*
X192500Y122500D02*Y118500D01*
Y120000D02*X193000Y120500D01*
X194000D01*
X194500Y120000D01*
Y118500D01*
X196200Y122500D02*Y119000D01*
X196700Y118500D01*
X195700Y121000D02*X196700D01*
X198200Y122500D02*Y119000D01*
X198700Y118500D01*
X197700Y121000D02*X198700D01*
X200200Y120000D02*Y117000D01*
X199700Y120500D02*X200200Y120000D01*
X200700Y120500D01*
X201700D01*
X202200Y120000D01*
Y119000D01*
X201700Y118500D02*X202200Y119000D01*
X200700Y118500D02*X201700D01*
X200200Y119000D02*X200700Y118500D01*
X203400Y121000D02*X203900D01*
X203400Y120000D02*X203900D01*
X205100Y119000D02*X208100Y122000D01*
X209300Y119000D02*X212300Y122000D01*
X213500Y121500D02*Y121000D01*
Y120000D02*Y118500D01*
X216000Y120500D02*X216500Y120000D01*
X215000Y120500D02*X216000D01*
X214500Y120000D02*X215000Y120500D01*
X214500Y120000D02*Y119000D01*
X215000Y118500D01*
X216500Y120500D02*Y119000D01*
X217000Y118500D01*
X215000D02*X216000D01*
X216500Y119000D01*
X218700Y118500D02*X220200D01*
X220700Y119000D01*
X220200Y119500D02*X220700Y119000D01*
X218700Y119500D02*X220200D01*
X218200Y120000D02*X218700Y119500D01*
X218200Y120000D02*X218700Y120500D01*
X220200D01*
X220700Y120000D01*
X218200Y119000D02*X218700Y118500D01*
X222400Y120500D02*X223900D01*
X221900Y120000D02*X222400Y120500D01*
X221900Y120000D02*Y119000D01*
X222400Y118500D01*
X223900D01*
X226600Y120500D02*X227100Y120000D01*
X225600Y120500D02*X226600D01*
X225100Y120000D02*X225600Y120500D01*
X225100Y120000D02*Y119000D01*
X225600Y118500D01*
X227100Y120500D02*Y119000D01*
X227600Y118500D01*
X225600D02*X226600D01*
X227100Y119000D01*
X228800Y122500D02*Y119000D01*
X229300Y118500D01*
X230800D02*X232300D01*
X230300Y119000D02*X230800Y118500D01*
X230300Y120000D02*Y119000D01*
Y120000D02*X230800Y120500D01*
X231800D01*
X232300Y120000D01*
X230300Y119500D02*X232300D01*
Y120000D02*Y119500D01*
X235500Y122500D02*Y118500D01*
X235000D02*X235500Y119000D01*
X234000Y118500D02*X235000D01*
X233500Y119000D02*X234000Y118500D01*
X233500Y120000D02*Y119000D01*
Y120000D02*X234000Y120500D01*
X235000D01*
X235500Y120000D01*
X236700Y118500D02*X237200D01*
X238900Y120500D02*X240400D01*
X238400Y120000D02*X238900Y120500D01*
X238400Y120000D02*Y119000D01*
X238900Y118500D01*
X240400D01*
X241600Y120000D02*Y119000D01*
Y120000D02*X242100Y120500D01*
X243100D01*
X243600Y120000D01*
Y119000D01*
X243100Y118500D02*X243600Y119000D01*
X242100Y118500D02*X243100D01*
X241600Y119000D02*X242100Y118500D01*
X245300Y120000D02*Y118500D01*
Y120000D02*X245800Y120500D01*
X246300D01*
X246800Y120000D01*
Y118500D01*
Y120000D02*X247300Y120500D01*
X247800D01*
X248300Y120000D01*
Y118500D01*
X244800Y120500D02*X245300Y120000D01*
X72000Y165000D02*X73500D01*
X71500Y167000D02*X73500D01*
Y163000D01*
X71500D02*X73500D01*
X68800D02*X68300Y163500D01*
X68800Y163000D02*X69800D01*
X70300Y163500D02*X69800Y163000D01*
X70300Y166500D02*Y163500D01*
Y166500D02*X69800Y167000D01*
X68800Y165000D02*X68300Y165500D01*
X68800Y165000D02*X70300D01*
X68800Y167000D02*X69800D01*
X68800D02*X68300Y166500D01*
Y165500D01*
X52000Y165000D02*X53500D01*
X51500Y167000D02*X53500D01*
Y163000D01*
X51500D02*X53500D01*
X50300Y167000D02*X47800Y164500D01*
Y163000D01*
X50300D01*
X23500D02*X23000Y163500D01*
X23500Y163000D02*X25000D01*
X25500Y163500D02*X25000Y163000D01*
X25500Y166500D02*Y163500D01*
Y166500D02*X25000Y167000D01*
X23500D02*X25000D01*
X23500D02*X23000Y166500D01*
Y165500D01*
X23500Y165000D02*X23000Y165500D01*
X23500Y165000D02*X24500D01*
X21800Y167000D02*Y163000D01*
Y163500D02*Y163000D01*
Y163500D02*X19300Y166000D01*
Y167000D02*Y163000D01*
X17600Y167000D02*Y163000D01*
X16100D02*X15600Y163500D01*
Y166500D02*Y163500D01*
X16100Y167000D02*X15600Y166500D01*
X16100Y167000D02*X18100D01*
X16100Y163000D02*X18100D01*
X56500Y113500D02*X57500D01*
X57000D02*Y109500D01*
X56500D02*X57500D01*
X58700Y113000D02*X59200Y113500D01*
X60700D01*
X61200Y113000D01*
Y112000D01*
X58700Y109500D02*X61200Y112000D01*
X58700Y109500D02*X61200D01*
X62900D02*X64400D01*
X62400Y110000D02*X62900Y109500D01*
X62400Y113000D02*Y110000D01*
Y113000D02*X62900Y113500D01*
X64400D01*
X65600Y111500D02*X67600D01*
X68800Y113500D02*Y113000D01*
X71300Y110500D01*
Y109500D01*
X68800Y110500D02*Y109500D01*
Y110500D02*X71300Y113000D01*
Y113500D02*Y113000D01*
X72500Y113500D02*X73500D01*
X73000D02*Y109500D01*
X72500D02*X73500D01*
X74700Y113000D02*Y110000D01*
Y113000D02*X75200Y113500D01*
X76200D01*
X76700Y113000D01*
Y110000D01*
X76200Y109500D02*X76700Y110000D01*
X75200Y109500D02*X76200D01*
X74700Y110000D02*X75200Y109500D01*
X81000Y111500D02*Y110500D01*
X82000Y109500D01*
X83000Y110500D01*
Y111500D02*Y110500D01*
X84700Y109500D02*X85700D01*
X85200Y113500D02*Y109500D01*
X84200Y112500D02*X85200Y113500D01*
X86900Y109500D02*X87400D01*
X88600Y113000D02*X89100Y113500D01*
X90600D01*
X91100Y113000D01*
Y112000D01*
X88600Y109500D02*X91100Y112000D01*
X88600Y109500D02*X91100D01*
G54D82*X195200Y73100D02*X203800D01*
G54D81*X195200D02*X194000Y70700D01*
Y54900D01*
X205000D01*
Y70700D02*Y54900D01*
Y70700D02*X203800Y73100D01*
X188755Y62393D02*Y61607D01*
X183245Y62393D02*Y61607D01*
X204760Y88862D02*Y84138D01*
X212240Y88862D02*Y84138D01*
X205745Y106393D02*Y105607D01*
X211255Y106393D02*Y105607D01*
G54D82*X211200Y73100D02*X219800D01*
G54D81*X211200D02*X210000Y70700D01*
Y54900D01*
X221000D01*
Y70700D02*Y54900D01*
Y70700D02*X219800Y73100D01*
X120500Y160300D02*X160500D01*
X120500Y130300D02*X134500D01*
X120500Y134700D02*X134500D01*
X160500Y160300D02*Y147500D01*
X120500Y160300D02*Y130300D01*
X200500Y160300D02*X240500D01*
X200500Y130300D02*X240500D01*
X200500Y134700D02*X240500D01*
Y160300D02*Y130300D01*
X200500Y160300D02*Y130300D01*
X240500Y160300D02*X280500D01*
X240500Y130300D02*X254500D01*
X240500Y134700D02*X254500D01*
X280500Y160300D02*Y147500D01*
X240500Y160300D02*Y130300D01*
X280500Y160300D02*X320500D01*
X306500Y130300D02*X320500D01*
X306500Y134700D02*X320500D01*
Y160300D02*Y130300D01*
X280500Y160300D02*Y147500D01*
X160500Y160300D02*X200500D01*
X186500Y130300D02*X200500D01*
X186500Y134700D02*X200500D01*
Y160300D02*Y130300D01*
X160500Y160300D02*Y147500D01*
X254500Y118200D02*X306500D01*
Y141500D02*Y118200D01*
X254500Y141500D02*Y118200D01*
X153665Y78626D02*X199335D01*
X153665Y112090D02*X199335D01*
X153665D02*Y78626D01*
X199335Y112090D02*Y78626D01*
X139100Y105600D02*X147800Y94700D01*
Y64800D01*
X113200D02*X147800D01*
X113200Y94700D02*Y64800D01*
Y94700D02*X121900Y105600D01*
X139100D01*
X170814Y66468D02*Y62532D01*
X160186Y66468D02*Y62532D01*
X160500Y9700D02*X200500D01*
X186500Y39700D02*X200500D01*
X186500Y35300D02*X200500D01*
X160500Y22500D02*Y9700D01*
X200500Y39700D02*Y9700D01*
X120500D02*X160500D01*
X120500Y39700D02*X134500D01*
X120500Y35300D02*X134500D01*
X120500Y39700D02*Y9700D01*
X160500Y22500D02*Y9700D01*
X200500D02*X240500D01*
X200500Y39700D02*X240500D01*
X200500Y35300D02*X240500D01*
X200500Y39700D02*Y9700D01*
X240500Y39700D02*Y9700D01*
X134500Y51800D02*X186500D01*
X134500D02*Y28500D01*
X186500Y51800D02*Y28500D01*
X515300Y125000D02*Y85000D01*
X485300Y125000D02*Y85000D01*
X489700Y125000D02*Y85000D01*
X485300D02*X515300D01*
X485300Y125000D02*X515300D01*
Y85000D02*Y45000D01*
X485300Y85000D02*Y45000D01*
X489700Y85000D02*Y45000D01*
X485300D02*X515300D01*
X485300Y85000D02*X515300D01*
X480500Y9700D02*X520500D01*
X480500Y39700D02*X520500D01*
X480500Y35300D02*X520500D01*
X480500Y39700D02*Y9700D01*
X520500Y39700D02*Y9700D01*
X440500D02*X480500D01*
X440500Y39700D02*X480500D01*
X440500Y35300D02*X480500D01*
X440500Y39700D02*Y9700D01*
X480500Y39700D02*Y9700D01*
X445200Y43500D02*X447600Y44700D01*
X429400Y43500D02*X445200D01*
X429400Y54500D02*Y43500D01*
Y54500D02*X445200D01*
X447600Y53300D02*X445200Y54500D01*
G54D82*X447600Y53300D02*Y44700D01*
G54D81*X454500Y56000D02*X464500D01*
Y46000D01*
X454500Y56000D02*Y46000D01*
Y56000D02*X474500D01*
Y46000D01*
X454500D02*X474500D01*
X454500Y66000D02*X464500D01*
Y56000D01*
X454500Y66000D02*Y56000D01*
Y66000D02*X474500D01*
Y56000D01*
X454500D02*X474500D01*
X134500Y118200D02*X186500D01*
Y141500D02*Y118200D01*
X134500Y141500D02*Y118200D01*
X54500D02*X106500D01*
Y141500D02*Y118200D01*
X54500Y141500D02*Y118200D01*
X80500Y160300D02*X120500D01*
X106500Y130300D02*X120500D01*
X106500Y134700D02*X120500D01*
Y160300D02*Y130300D01*
X80500Y160300D02*Y147500D01*
X500Y160300D02*X40500D01*
X500Y130300D02*X40500D01*
X500Y134700D02*X40500D01*
Y160300D02*Y130300D01*
X500Y160300D02*Y130300D01*
X40500Y160300D02*X80500D01*
X40500Y130300D02*X54500D01*
X40500Y134700D02*X54500D01*
X80500Y160300D02*Y147500D01*
X40500Y160300D02*Y130300D01*
X20100Y119500D02*X39800D01*
X20100Y111500D02*X39800D01*
Y119500D02*Y111500D01*
X20100Y119500D02*Y111500D01*
X33000Y119500D02*Y111500D01*
X80500Y9700D02*X120500D01*
X106500Y39700D02*X120500D01*
X106500Y35300D02*X120500D01*
X80500Y22500D02*Y9700D01*
X120500Y39700D02*Y9700D01*
X54500Y51800D02*X106500D01*
X54500D02*Y28500D01*
X106500Y51800D02*Y28500D01*
X40500Y9700D02*X80500D01*
X40500Y39700D02*X54500D01*
X40500Y35300D02*X54500D01*
X40500Y39700D02*Y9700D01*
X80500Y22500D02*Y9700D01*
X9700Y105000D02*Y65000D01*
X39700Y105000D02*Y65000D01*
X35300Y105000D02*Y65000D01*
X9700Y105000D02*X39700D01*
X9700Y65000D02*X39700D01*
X500Y9700D02*X40500D01*
X500Y39700D02*X40500D01*
X500Y35300D02*X40500D01*
X500Y39700D02*Y9700D01*
X40500Y39700D02*Y9700D01*
X101100Y105600D02*X109800Y94700D01*
Y64800D01*
X75200D02*X109800D01*
X75200Y94700D02*Y64800D01*
Y94700D02*X83900Y105600D01*
X101100D01*
X280500Y9700D02*X320500D01*
X306500Y39700D02*X320500D01*
X306500Y35300D02*X320500D01*
X280500Y22500D02*Y9700D01*
X320500Y39700D02*Y9700D01*
X240500D02*X280500D01*
X240500Y39700D02*X254500D01*
X240500Y35300D02*X254500D01*
X240500Y39700D02*Y9700D01*
X280500Y22500D02*Y9700D01*
X254500Y51800D02*X306500D01*
X254500D02*Y28500D01*
X306500Y51800D02*Y28500D01*
X294607Y98755D02*X295393D01*
X294607Y93245D02*X295393D01*
X294607Y87755D02*X295393D01*
X294607Y82245D02*X295393D01*
X226835Y103913D02*Y87500D01*
Y82500D02*Y66087D01*
Y103913D02*X283165D01*
Y66087D01*
X226835D02*X283165D01*
X226835Y82500D02*G75*G03X226835Y87500I0J2500D01*G01*
X294607Y76755D02*X295393D01*
X294607Y71245D02*X295393D01*
X440500Y160300D02*X480500D01*
X440500Y130300D02*X480500D01*
X440500Y134700D02*X480500D01*
Y160300D02*Y130300D01*
X440500Y160300D02*Y130300D01*
X480500Y160300D02*X520500D01*
X480500Y130300D02*X520500D01*
X480500Y134700D02*X520500D01*
Y160300D02*Y130300D01*
X480500Y160300D02*Y130300D01*
X400500Y160300D02*X440500D01*
X400500Y130300D02*X440500D01*
X400500Y134700D02*X440500D01*
Y160300D02*Y130300D01*
X400500Y160300D02*Y130300D01*
X360500Y9700D02*X400500D01*
X386500Y39700D02*X400500D01*
X386500Y35300D02*X400500D01*
X360500Y22500D02*Y9700D01*
X400500Y39700D02*Y9700D01*
X440500D01*
X400500Y39700D02*X440500D01*
X400500Y35300D02*X440500D01*
X400500Y39700D02*Y9700D01*
X440500Y39700D02*Y9700D01*
X320500D02*X360500D01*
X320500Y39700D02*X334500D01*
X320500Y35300D02*X334500D01*
X320500Y39700D02*Y9700D01*
X360500Y22500D02*Y9700D01*
X334500Y51800D02*X386500D01*
X334500D02*Y28500D01*
X386500Y51800D02*Y28500D01*
X380500Y111500D02*Y58500D01*
X315000Y111500D02*Y58500D01*
X380500D01*
X315000Y111500D02*X380500D01*
X360500Y160300D02*X400500D01*
X386500Y130300D02*X400500D01*
X386500Y134700D02*X400500D01*
Y160300D02*Y130300D01*
X360500Y160300D02*Y147500D01*
X320500Y160300D02*X360500D01*
X320500Y130300D02*X334500D01*
X320500Y134700D02*X334500D01*
X360500Y160300D02*Y147500D01*
X320500Y160300D02*Y130300D01*
X334500Y118200D02*X386500D01*
Y141500D02*Y118200D01*
X334500Y141500D02*Y118200D01*
G54D82*X447600Y125300D02*Y116700D01*
G54D81*Y125300D02*X445200Y126500D01*
X429400D02*X445200D01*
X429400D02*Y115500D01*
X445200D01*
X447600Y116700D01*
X448500Y111500D02*Y58500D01*
X383000Y111500D02*Y58500D01*
X448500D01*
X383000Y111500D02*X448500D01*
X454500Y114500D02*X464500D01*
Y104500D01*
X454500Y114500D02*Y104500D01*
Y114500D02*X474500D01*
Y104500D01*
X454500D02*X474500D01*
X408607Y47245D02*X409393D01*
X408607Y52755D02*X409393D01*
X197500Y48500D02*X199000D01*
X197000Y49000D02*X197500Y48500D01*
X197000Y52000D02*Y49000D01*
Y52000D02*X197500Y52500D01*
X199000D01*
X200200Y50500D02*X202200Y52500D01*
X200200Y50500D02*X202700D01*
X202200Y52500D02*Y48500D01*
X184000Y70000D02*X185500D01*
X183500Y70500D02*X184000Y70000D01*
X183500Y73500D02*Y70500D01*
Y73500D02*X184000Y74000D01*
X185500D01*
X186700Y73500D02*X187200Y74000D01*
X188200D01*
X188700Y73500D01*
Y70500D01*
X188200Y70000D02*X188700Y70500D01*
X187200Y70000D02*X188200D01*
X186700Y70500D02*X187200Y70000D01*
Y72000D02*X188700D01*
X215500Y88500D02*Y84500D01*
X217000Y88500D02*X217500Y88000D01*
Y85000D01*
X217000Y84500D02*X217500Y85000D01*
X215000Y84500D02*X217000D01*
X215000Y88500D02*X217000D01*
X219200Y84500D02*X220200D01*
X219700Y88500D02*Y84500D01*
X218700Y87500D02*X219700Y88500D01*
X214000Y108000D02*X216000D01*
X216500Y107500D01*
Y106500D01*
X216000Y106000D02*X216500Y106500D01*
X214500Y106000D02*X216000D01*
X214500Y108000D02*Y104000D01*
Y106000D02*X216500Y104000D01*
X218200D02*X219200D01*
X218700Y108000D02*Y104000D01*
X217700Y107000D02*X218700Y108000D01*
X213500Y48600D02*X215000D01*
X213000Y49100D02*X213500Y48600D01*
X213000Y52100D02*Y49100D01*
Y52100D02*X213500Y52600D01*
X215000D01*
X216200D02*X218200D01*
X216200D02*Y50600D01*
X216700Y51100D01*
X217700D01*
X218200Y50600D01*
Y49100D01*
X217700Y48600D02*X218200Y49100D01*
X216700Y48600D02*X217700D01*
X216200Y49100D02*X216700Y48600D01*
X146500Y110500D02*Y107000D01*
X147000Y106500D01*
X148000D01*
X148500Y107000D01*
Y110500D02*Y107000D01*
X150200Y106500D02*X151200D01*
X150700Y110500D02*Y106500D01*
X149700Y109500D02*X150700Y110500D01*
X128500Y58500D02*X130000D01*
X128000Y59000D02*X128500Y58500D01*
X128000Y62000D02*Y59000D01*
Y62000D02*X128500Y62500D01*
X130000D01*
X131700Y58500D02*X132700D01*
X132200Y62500D02*Y58500D01*
X131200Y61500D02*X132200Y62500D01*
X152000D02*X153500D01*
X151500Y63000D02*X152000Y62500D01*
X151500Y66000D02*Y63000D01*
Y66000D02*X152000Y66500D01*
X153500D01*
X154700Y66000D02*X155200Y66500D01*
X156700D01*
X157200Y66000D01*
Y65000D01*
X154700Y62500D02*X157200Y65000D01*
X154700Y62500D02*X157200D01*
X88500Y58500D02*X90000D01*
X88000Y59000D02*X88500Y58500D01*
X88000Y62000D02*Y59000D01*
Y62000D02*X88500Y62500D01*
X90000D01*
X91700Y58500D02*X92700D01*
X92200Y62500D02*Y58500D01*
X91200Y61500D02*X92200Y62500D01*
X93900Y62000D02*Y58500D01*
Y62000D02*X94400Y62500D01*
X95900D01*
X96400Y62000D01*
Y58500D01*
X93900Y60500D02*X96400D01*
X422000Y47100D02*X423500D01*
X421500Y47600D02*X422000Y47100D01*
X421500Y50600D02*Y47600D01*
Y50600D02*X422000Y51100D01*
X423500D01*
X424700Y47100D02*X427200Y49600D01*
Y51100D02*Y49600D01*
X424700Y51100D02*X427200D01*
X422000Y119100D02*X423500D01*
X421500Y119600D02*X422000Y119100D01*
X421500Y122600D02*Y119600D01*
Y122600D02*X422000Y123100D01*
X423500D01*
X426200D02*X426700Y122600D01*
X425200Y123100D02*X426200D01*
X424700Y122600D02*X425200Y123100D01*
X424700Y122600D02*Y119600D01*
X425200Y119100D01*
X426200Y121100D02*X426700Y120600D01*
X424700Y121100D02*X426200D01*
X425200Y119100D02*X426200D01*
X426700Y119600D01*
Y120600D02*Y119600D01*
X420500Y87000D02*X422000D01*
Y83500D01*
X421500Y83000D02*X422000Y83500D01*
X421000Y83000D02*X421500D01*
X420500Y83500D02*X421000Y83000D01*
X423200Y86500D02*X423700Y87000D01*
X424700D01*
X425200Y86500D01*
Y83500D01*
X424700Y83000D02*X425200Y83500D01*
X423700Y83000D02*X424700D01*
X423200Y83500D02*X423700Y83000D01*
Y85000D02*X425200D01*
X395307Y52150D02*X397307D01*
X397807Y51650D01*
Y50650D01*
X397307Y50150D02*X397807Y50650D01*
X395807Y50150D02*X397307D01*
X395807Y52150D02*Y48150D01*
Y50150D02*X397807Y48150D01*
X399007Y52150D02*X401007D01*
X399007D02*Y50150D01*
X399507Y50650D01*
X400507D01*
X401007Y50150D01*
Y48650D01*
X400507Y48150D02*X401007Y48650D01*
X399507Y48150D02*X400507D01*
X399007Y48650D02*X399507Y48150D01*
X352000Y87000D02*X353500D01*
Y83500D01*
X353000Y83000D02*X353500Y83500D01*
X352500Y83000D02*X353000D01*
X352000Y83500D02*X352500Y83000D01*
X354700Y86500D02*X355200Y87000D01*
X356700D01*
X357200Y86500D01*
Y85500D01*
X354700Y83000D02*X357200Y85500D01*
X354700Y83000D02*X357200D01*
X291500Y114000D02*X293500D01*
X294000Y113500D01*
Y112500D01*
X293500Y112000D02*X294000Y112500D01*
X292000Y112000D02*X293500D01*
X292000Y114000D02*Y110000D01*
Y112000D02*X294000Y110000D01*
X295200Y112000D02*X297200Y114000D01*
X295200Y112000D02*X297700D01*
X297200Y114000D02*Y110000D01*
X291500Y106000D02*X293500D01*
X294000Y105500D01*
Y104500D01*
X293500Y104000D02*X294000Y104500D01*
X292000Y104000D02*X293500D01*
X292000Y106000D02*Y102000D01*
Y104000D02*X294000Y102000D01*
X295200Y105500D02*X295700Y106000D01*
X296700D01*
X297200Y105500D01*
Y102500D01*
X296700Y102000D02*X297200Y102500D01*
X295700Y102000D02*X296700D01*
X295200Y102500D02*X295700Y102000D01*
Y104000D02*X297200D01*
X251500Y63500D02*Y60000D01*
X252000Y59500D01*
X253000D01*
X253500Y60000D01*
Y63500D02*Y60000D01*
X254700Y63000D02*X255200Y63500D01*
X256700D01*
X257200Y63000D01*
Y62000D01*
X254700Y59500D02*X257200Y62000D01*
X254700Y59500D02*X257200D01*
X292000Y69000D02*X294000D01*
X294500Y68500D01*
Y67500D01*
X294000Y67000D02*X294500Y67500D01*
X292500Y67000D02*X294000D01*
X292500Y69000D02*Y65000D01*
Y67000D02*X294500Y65000D01*
X295700Y68500D02*X296200Y69000D01*
X297700D01*
X298200Y68500D01*
Y67500D01*
X295700Y65000D02*X298200Y67500D01*
X295700Y65000D02*X298200D01*
X27000Y125500D02*Y121500D01*
X28500Y125500D02*X29000Y125000D01*
Y122000D01*
X28500Y121500D02*X29000Y122000D01*
X26500Y121500D02*X28500D01*
X26500Y125500D02*X28500D01*
X30200Y125000D02*X30700Y125500D01*
X32200D01*
X32700Y125000D01*
Y124000D01*
X30200Y121500D02*X32700Y124000D01*
X30200Y121500D02*X32700D01*
X46000Y70500D02*Y69000D01*
X42500D02*X46000D01*
X42000Y69500D02*X42500Y69000D01*
X42000Y70000D02*Y69500D01*
X42500Y70500D02*X42000Y70000D01*
Y67300D02*Y66300D01*
Y66800D02*X46000D01*
X45000Y67800D02*X46000Y66800D01*
M02*
