G04 start of page 7 for group -4062 idx -4062 *
G04 Title: (unknown), soldermask *
G04 Creator: pcb 20140316 *
G04 CreationDate: Mon 29 Jan 2018 01:09:38 AM GMT UTC *
G04 For: railfan *
G04 Format: Gerber/RS-274X *
G04 PCB-Dimensions (mil): 5500.00 1700.00 *
G04 PCB-Coordinate-Origin: lower left *
%MOIN*%
%FSLAX25Y25*%
%LNBOTTOMMASK*%
%ADD76C,0.0900*%
%ADD75C,0.0001*%
%ADD74C,0.2997*%
%ADD73C,0.0750*%
%ADD72C,0.1500*%
%ADD71C,0.0860*%
G54D71*X470500Y147500D03*
X450500D03*
X430500D03*
X410500D03*
X510500D03*
X490500D03*
G54D72*X500500Y158500D03*
X460500D03*
G54D71*X490500Y22500D03*
X450500D03*
X470500D03*
X410500D03*
X430500D03*
X510500D03*
X527500Y55000D03*
G54D73*X468000Y46500D03*
X473000Y36500D03*
G54D72*X460500Y11500D03*
G54D73*X478000Y46500D03*
X488000D03*
X483000Y36500D03*
X493000D03*
G54D72*X500500Y11500D03*
G54D74*X467000Y85000D03*
G54D73*X388000Y72500D03*
X398000Y77500D03*
X388000Y82500D03*
X398000Y87500D03*
X388000Y92500D03*
G54D72*X423000Y65000D03*
G54D73*X398000Y97500D03*
G54D72*X423000Y105000D03*
G54D71*X527500Y95000D03*
Y115000D03*
Y75000D03*
G54D73*X493000Y123500D03*
X488000Y133500D03*
X483000Y123500D03*
X478000Y133500D03*
X473000Y123500D03*
X468000Y133500D03*
X330000Y77500D03*
G54D72*X355000Y65000D03*
G54D73*X320000Y82500D03*
Y92500D03*
X330000Y87500D03*
Y97500D03*
G54D72*X355000Y105000D03*
G54D71*X390500Y147500D03*
X370500D03*
G54D72*X380500Y158500D03*
X340500D03*
X300500D03*
X260500D03*
G54D71*X150500Y147500D03*
X130500D03*
X110500D03*
X90500D03*
G54D72*X140500Y158500D03*
X100500D03*
X60500D03*
G54D73*X93000Y123500D03*
X88000Y133500D03*
X83000Y123500D03*
X78000Y133500D03*
X73000Y123500D03*
X68000Y133500D03*
G54D71*X30500Y147500D03*
X10500D03*
X70500D03*
X50500D03*
G54D75*G36*
X46200Y26800D02*Y18200D01*
X54800D01*
Y26800D01*
X46200D01*
G37*
G54D71*X10500Y22500D03*
X30500D03*
G54D75*G36*
X66200Y26800D02*Y18200D01*
X74800D01*
Y26800D01*
X66200D01*
G37*
G54D71*X250500Y22500D03*
X230500D03*
X270500D03*
X90500D03*
G54D72*X140500Y11500D03*
G54D71*X110500Y22500D03*
X170500D03*
X190500D03*
X130500D03*
X150500D03*
X210500D03*
G54D75*G36*
X18200Y99300D02*Y90700D01*
X26800D01*
Y99300D01*
X18200D01*
G37*
G54D71*X22500Y75000D03*
G54D73*X68000Y46500D03*
X73000Y36500D03*
X78000Y46500D03*
X83000Y36500D03*
X88000Y46500D03*
X93000Y36500D03*
G54D72*X60500Y11500D03*
X100500D03*
G54D74*X57000Y85000D03*
G54D73*X173000Y123500D03*
X168000Y133500D03*
X163000Y123500D03*
X158000Y133500D03*
X153000Y123500D03*
X148000Y133500D03*
G54D72*X180500Y158500D03*
G54D76*X186500Y86500D03*
X176500D03*
G54D75*G36*
X162000Y91000D02*Y82000D01*
X171000D01*
Y91000D01*
X162000D01*
G37*
G54D71*X170500Y147500D03*
X210500D03*
X190500D03*
X310500Y22500D03*
X330500D03*
X350500D03*
X370500D03*
G54D72*X380500Y11500D03*
G54D71*X390500Y22500D03*
X290500D03*
G54D73*X268000Y46500D03*
X273000Y36500D03*
X278000Y46500D03*
X283000Y36500D03*
X288000Y46500D03*
X293000Y36500D03*
G54D72*X260500Y11500D03*
X300500D03*
X340500D03*
G54D73*X148000Y46500D03*
X153000Y36500D03*
X158000Y46500D03*
X163000Y36500D03*
X168000Y46500D03*
X173000Y36500D03*
G54D72*X180500Y11500D03*
G54D71*X230500Y147500D03*
X250500D03*
X270500D03*
X290500D03*
G54D73*X293000Y123500D03*
X288000Y133500D03*
X283000Y123500D03*
X278000Y133500D03*
X273000Y123500D03*
X268000Y133500D03*
G54D71*X350500Y147500D03*
X330500D03*
X310500D03*
G54D73*X348000Y46500D03*
X353000Y36500D03*
X358000Y46500D03*
X363000Y36500D03*
X368000Y46500D03*
X373000Y36500D03*
Y123500D03*
X368000Y133500D03*
X363000Y123500D03*
X358000Y133500D03*
X353000Y123500D03*
X348000Y133500D03*
X320000Y72500D03*
M02*
