G04 start of page 12 for group -3984 idx -3984 *
G04 Title: (unknown), fab *
G04 Creator: pcb 20140316 *
G04 CreationDate: Mon 29 Jan 2018 01:09:38 AM GMT UTC *
G04 For: railfan *
G04 Format: Gerber/RS-274X *
G04 PCB-Dimensions (mil): 5500.00 1700.00 *
G04 PCB-Coordinate-Origin: lower left *
%MOIN*%
%FSLAX25Y25*%
%LNFAB*%
%ADD88C,0.0100*%
%ADD87C,0.0060*%
%ADD86R,0.0080X0.0080*%
G54D86*X467000Y88200D02*Y81800D01*
X463800Y85000D02*X470200D01*
X465400Y86600D02*X468600D01*
X465400D02*Y83400D01*
X468600D01*
Y86600D02*Y83400D01*
X57000Y88200D02*Y81800D01*
X53800Y85000D02*X60200D01*
X55400Y86600D02*X58600D01*
X55400D02*Y83400D01*
X58600D01*
Y86600D02*Y83400D01*
X15000Y184450D02*Y178050D01*
X11800Y181250D02*X18200D01*
X13400Y182850D02*X16600D01*
X13400D02*Y179650D01*
X16600D01*
Y182850D02*Y179650D01*
G54D87*X135000Y183500D02*Y182750D01*
X136500Y181250D01*
X138000Y182750D01*
Y183500D02*Y182750D01*
X136500Y181250D02*Y177500D01*
X139800Y180500D02*X142050D01*
X139800Y177500D02*X142800D01*
X139800Y183500D02*Y177500D01*
Y183500D02*X142800D01*
X147600D02*X148350Y182750D01*
X145350Y183500D02*X147600D01*
X144600Y182750D02*X145350Y183500D01*
X144600Y182750D02*Y181250D01*
X145350Y180500D01*
X147600D01*
X148350Y179750D01*
Y178250D01*
X147600Y177500D02*X148350Y178250D01*
X145350Y177500D02*X147600D01*
X144600Y178250D02*X145350Y177500D01*
X98000Y182750D02*X98750Y183500D01*
X101000D01*
X101750Y182750D01*
Y181250D01*
X98000Y177500D02*X101750Y181250D01*
X98000Y177500D02*X101750D01*
X45000Y178250D02*X45750Y177500D01*
X45000Y182750D02*Y178250D01*
Y182750D02*X45750Y183500D01*
X47250D01*
X48000Y182750D01*
Y178250D01*
X47250Y177500D02*X48000Y178250D01*
X45750Y177500D02*X47250D01*
X45000Y179000D02*X48000Y182000D01*
X49800Y177500D02*X50550D01*
X53100D02*X54600D01*
X53850Y183500D02*Y177500D01*
X52350Y182000D02*X53850Y183500D01*
X56400Y182750D02*X57150Y183500D01*
X59400D01*
X60150Y182750D01*
Y181250D01*
X56400Y177500D02*X60150Y181250D01*
X56400Y177500D02*X60150D01*
X61950D02*X64950Y180500D01*
Y182750D02*Y180500D01*
X64200Y183500D02*X64950Y182750D01*
X62700Y183500D02*X64200D01*
X61950Y182750D02*X62700Y183500D01*
X61950Y182750D02*Y181250D01*
X62700Y180500D01*
X64950D01*
X180500Y158500D02*Y155300D01*
Y158500D02*X183273Y160100D01*
X180500Y158500D02*X177727Y160100D01*
X178900Y158500D02*G75*G03X182100Y158500I1600J0D01*G01*
G75*G03X178900Y158500I-1600J0D01*G01*
X140500D02*Y155300D01*
Y158500D02*X143273Y160100D01*
X140500Y158500D02*X137727Y160100D01*
X138900Y158500D02*G75*G03X142100Y158500I1600J0D01*G01*
G75*G03X138900Y158500I-1600J0D01*G01*
X100500D02*Y155300D01*
Y158500D02*X103273Y160100D01*
X100500Y158500D02*X97727Y160100D01*
X98900Y158500D02*G75*G03X102100Y158500I1600J0D01*G01*
G75*G03X98900Y158500I-1600J0D01*G01*
X60500D02*Y155300D01*
Y158500D02*X63273Y160100D01*
X60500Y158500D02*X57727Y160100D01*
X58900Y158500D02*G75*G03X62100Y158500I1600J0D01*G01*
G75*G03X58900Y158500I-1600J0D01*G01*
X260500Y11500D02*Y8300D01*
Y11500D02*X263273Y13100D01*
X260500Y11500D02*X257727Y13100D01*
X258900Y11500D02*G75*G03X262100Y11500I1600J0D01*G01*
G75*G03X258900Y11500I-1600J0D01*G01*
X300500D02*Y8300D01*
Y11500D02*X303273Y13100D01*
X300500Y11500D02*X297727Y13100D01*
X298900Y11500D02*G75*G03X302100Y11500I1600J0D01*G01*
G75*G03X298900Y11500I-1600J0D01*G01*
X60500D02*Y8300D01*
Y11500D02*X63273Y13100D01*
X60500Y11500D02*X57727Y13100D01*
X58900Y11500D02*G75*G03X62100Y11500I1600J0D01*G01*
G75*G03X58900Y11500I-1600J0D01*G01*
X100500D02*Y8300D01*
Y11500D02*X103273Y13100D01*
X100500Y11500D02*X97727Y13100D01*
X98900Y11500D02*G75*G03X102100Y11500I1600J0D01*G01*
G75*G03X98900Y11500I-1600J0D01*G01*
X340500D02*Y8300D01*
Y11500D02*X343273Y13100D01*
X340500Y11500D02*X337727Y13100D01*
X338900Y11500D02*G75*G03X342100Y11500I1600J0D01*G01*
G75*G03X338900Y11500I-1600J0D01*G01*
X380500D02*Y8300D01*
Y11500D02*X383273Y13100D01*
X380500Y11500D02*X377727Y13100D01*
X378900Y11500D02*G75*G03X382100Y11500I1600J0D01*G01*
G75*G03X378900Y11500I-1600J0D01*G01*
X140500D02*Y8300D01*
Y11500D02*X143273Y13100D01*
X140500Y11500D02*X137727Y13100D01*
X138900Y11500D02*G75*G03X142100Y11500I1600J0D01*G01*
G75*G03X138900Y11500I-1600J0D01*G01*
X180500D02*Y8300D01*
Y11500D02*X183273Y13100D01*
X180500Y11500D02*X177727Y13100D01*
X178900Y11500D02*G75*G03X182100Y11500I1600J0D01*G01*
G75*G03X178900Y11500I-1600J0D01*G01*
X380500Y158500D02*Y155300D01*
Y158500D02*X383273Y160100D01*
X380500Y158500D02*X377727Y160100D01*
X378900Y158500D02*G75*G03X382100Y158500I1600J0D01*G01*
G75*G03X378900Y158500I-1600J0D01*G01*
X340500D02*Y155300D01*
Y158500D02*X343273Y160100D01*
X340500Y158500D02*X337727Y160100D01*
X338900Y158500D02*G75*G03X342100Y158500I1600J0D01*G01*
G75*G03X338900Y158500I-1600J0D01*G01*
X300500D02*Y155300D01*
Y158500D02*X303273Y160100D01*
X300500Y158500D02*X297727Y160100D01*
X298900Y158500D02*G75*G03X302100Y158500I1600J0D01*G01*
G75*G03X298900Y158500I-1600J0D01*G01*
X260500D02*Y155300D01*
Y158500D02*X263273Y160100D01*
X260500Y158500D02*X257727Y160100D01*
X258900Y158500D02*G75*G03X262100Y158500I1600J0D01*G01*
G75*G03X258900Y158500I-1600J0D01*G01*
X355000Y65000D02*Y61800D01*
Y65000D02*X357773Y66600D01*
X355000Y65000D02*X352227Y66600D01*
X353400Y65000D02*G75*G03X356600Y65000I1600J0D01*G01*
G75*G03X353400Y65000I-1600J0D01*G01*
X355000Y105000D02*Y101800D01*
Y105000D02*X357773Y106600D01*
X355000Y105000D02*X352227Y106600D01*
X353400Y105000D02*G75*G03X356600Y105000I1600J0D01*G01*
G75*G03X353400Y105000I-1600J0D01*G01*
X423000Y65000D02*Y61800D01*
Y65000D02*X425773Y66600D01*
X423000Y65000D02*X420227Y66600D01*
X421400Y65000D02*G75*G03X424600Y65000I1600J0D01*G01*
G75*G03X421400Y65000I-1600J0D01*G01*
X423000Y105000D02*Y101800D01*
Y105000D02*X425773Y106600D01*
X423000Y105000D02*X420227Y106600D01*
X421400Y105000D02*G75*G03X424600Y105000I1600J0D01*G01*
G75*G03X421400Y105000I-1600J0D01*G01*
X460500Y11500D02*Y8300D01*
Y11500D02*X463273Y13100D01*
X460500Y11500D02*X457727Y13100D01*
X458900Y11500D02*G75*G03X462100Y11500I1600J0D01*G01*
G75*G03X458900Y11500I-1600J0D01*G01*
X500500D02*Y8300D01*
Y11500D02*X503273Y13100D01*
X500500Y11500D02*X497727Y13100D01*
X498900Y11500D02*G75*G03X502100Y11500I1600J0D01*G01*
G75*G03X498900Y11500I-1600J0D01*G01*
X500500Y158500D02*Y155300D01*
Y158500D02*X503273Y160100D01*
X500500Y158500D02*X497727Y160100D01*
X498900Y158500D02*G75*G03X502100Y158500I1600J0D01*G01*
G75*G03X498900Y158500I-1600J0D01*G01*
X460500D02*Y155300D01*
Y158500D02*X463273Y160100D01*
X460500Y158500D02*X457727Y160100D01*
X458900Y158500D02*G75*G03X462100Y158500I1600J0D01*G01*
G75*G03X458900Y158500I-1600J0D01*G01*
X15000Y196250D02*Y193050D01*
Y196250D02*X17773Y197850D01*
X15000Y196250D02*X12227Y197850D01*
X13400Y196250D02*G75*G03X16600Y196250I1600J0D01*G01*
G75*G03X13400Y196250I-1600J0D01*G01*
X135000Y198500D02*Y197750D01*
X136500Y196250D01*
X138000Y197750D01*
Y198500D02*Y197750D01*
X136500Y196250D02*Y192500D01*
X139800Y195500D02*X142050D01*
X139800Y192500D02*X142800D01*
X139800Y198500D02*Y192500D01*
Y198500D02*X142800D01*
X147600D02*X148350Y197750D01*
X145350Y198500D02*X147600D01*
X144600Y197750D02*X145350Y198500D01*
X144600Y197750D02*Y196250D01*
X145350Y195500D01*
X147600D01*
X148350Y194750D01*
Y193250D01*
X147600Y192500D02*X148350Y193250D01*
X145350Y192500D02*X147600D01*
X144600Y193250D02*X145350Y192500D01*
X98000Y197750D02*X98750Y198500D01*
X101000D01*
X101750Y197750D01*
Y196250D01*
X98000Y192500D02*X101750Y196250D01*
X98000Y192500D02*X101750D01*
X103550Y195500D02*X106550Y198500D01*
X103550Y195500D02*X107300D01*
X106550Y198500D02*Y192500D01*
X45000Y193250D02*X45750Y192500D01*
X45000Y197750D02*Y193250D01*
Y197750D02*X45750Y198500D01*
X47250D01*
X48000Y197750D01*
Y193250D01*
X47250Y192500D02*X48000Y193250D01*
X45750Y192500D02*X47250D01*
X45000Y194000D02*X48000Y197000D01*
X49800Y192500D02*X50550D01*
X53100D02*X54600D01*
X53850Y198500D02*Y192500D01*
X52350Y197000D02*X53850Y198500D01*
X56400Y197750D02*X57150Y198500D01*
X59400D01*
X60150Y197750D01*
Y196250D01*
X56400Y192500D02*X60150Y196250D01*
X56400Y192500D02*X60150D01*
X61950Y193250D02*X62700Y192500D01*
X61950Y194750D02*Y193250D01*
Y194750D02*X62700Y195500D01*
X64200D01*
X64950Y194750D01*
Y193250D01*
X64200Y192500D02*X64950Y193250D01*
X62700Y192500D02*X64200D01*
X61950Y196250D02*X62700Y195500D01*
X61950Y197750D02*Y196250D01*
Y197750D02*X62700Y198500D01*
X64200D01*
X64950Y197750D01*
Y196250D01*
X64200Y195500D02*X64950Y196250D01*
X288900Y24100D02*X292100D01*
X288900D02*Y20900D01*
X292100D01*
Y24100D02*Y20900D01*
X308900Y24100D02*X312100D01*
X308900D02*Y20900D01*
X312100D01*
Y24100D02*Y20900D01*
X148900Y149100D02*X152100D01*
X148900D02*Y145900D01*
X152100D01*
Y149100D02*Y145900D01*
X128900Y149100D02*X132100D01*
X128900D02*Y145900D01*
X132100D01*
Y149100D02*Y145900D01*
X28900Y149100D02*X32100D01*
X28900D02*Y145900D01*
X32100D01*
Y149100D02*Y145900D01*
X8900Y149100D02*X12100D01*
X8900D02*Y145900D01*
X12100D01*
Y149100D02*Y145900D01*
X468900Y149100D02*X472100D01*
X468900D02*Y145900D01*
X472100D01*
Y149100D02*Y145900D01*
X448900Y149100D02*X452100D01*
X448900D02*Y145900D01*
X452100D01*
Y149100D02*Y145900D01*
X508900Y149100D02*X512100D01*
X508900D02*Y145900D01*
X512100D01*
Y149100D02*Y145900D01*
X488900Y149100D02*X492100D01*
X488900D02*Y145900D01*
X492100D01*
Y149100D02*Y145900D01*
X488900Y24100D02*X492100D01*
X488900D02*Y20900D01*
X492100D01*
Y24100D02*Y20900D01*
X508900Y24100D02*X512100D01*
X508900D02*Y20900D01*
X512100D01*
Y24100D02*Y20900D01*
X48900Y24100D02*X52100D01*
X48900D02*Y20900D01*
X52100D01*
Y24100D02*Y20900D01*
X68900Y24100D02*X72100D01*
X68900D02*Y20900D01*
X72100D01*
Y24100D02*Y20900D01*
X248900Y24100D02*X252100D01*
X248900D02*Y20900D01*
X252100D01*
Y24100D02*Y20900D01*
X268900Y24100D02*X272100D01*
X268900D02*Y20900D01*
X272100D01*
Y24100D02*Y20900D01*
X68900Y149100D02*X72100D01*
X68900D02*Y145900D01*
X72100D01*
Y149100D02*Y145900D01*
X48900Y149100D02*X52100D01*
X48900D02*Y145900D01*
X52100D01*
Y149100D02*Y145900D01*
X368900Y24100D02*X372100D01*
X368900D02*Y20900D01*
X372100D01*
Y24100D02*Y20900D01*
X388900Y24100D02*X392100D01*
X388900D02*Y20900D01*
X392100D01*
Y24100D02*Y20900D01*
X88900Y24100D02*X92100D01*
X88900D02*Y20900D01*
X92100D01*
Y24100D02*Y20900D01*
X108900Y24100D02*X112100D01*
X108900D02*Y20900D01*
X112100D01*
Y24100D02*Y20900D01*
X168900Y24100D02*X172100D01*
X168900D02*Y20900D01*
X172100D01*
Y24100D02*Y20900D01*
X188900Y24100D02*X192100D01*
X188900D02*Y20900D01*
X192100D01*
Y24100D02*Y20900D01*
X128900Y24100D02*X132100D01*
X128900D02*Y20900D01*
X132100D01*
Y24100D02*Y20900D01*
X148900Y24100D02*X152100D01*
X148900D02*Y20900D01*
X152100D01*
Y24100D02*Y20900D01*
X208900Y24100D02*X212100D01*
X208900D02*Y20900D01*
X212100D01*
Y24100D02*Y20900D01*
X228900Y24100D02*X232100D01*
X228900D02*Y20900D01*
X232100D01*
Y24100D02*Y20900D01*
X228900Y149100D02*X232100D01*
X228900D02*Y145900D01*
X232100D01*
Y149100D02*Y145900D01*
X208900Y149100D02*X212100D01*
X208900D02*Y145900D01*
X212100D01*
Y149100D02*Y145900D01*
X328900Y24100D02*X332100D01*
X328900D02*Y20900D01*
X332100D01*
Y24100D02*Y20900D01*
X348900Y24100D02*X352100D01*
X348900D02*Y20900D01*
X352100D01*
Y24100D02*Y20900D01*
X448900Y24100D02*X452100D01*
X448900D02*Y20900D01*
X452100D01*
Y24100D02*Y20900D01*
X468900Y24100D02*X472100D01*
X468900D02*Y20900D01*
X472100D01*
Y24100D02*Y20900D01*
X388900Y149100D02*X392100D01*
X388900D02*Y145900D01*
X392100D01*
Y149100D02*Y145900D01*
X368900Y149100D02*X372100D01*
X368900D02*Y145900D01*
X372100D01*
Y149100D02*Y145900D01*
X268900Y149100D02*X272100D01*
X268900D02*Y145900D01*
X272100D01*
Y149100D02*Y145900D01*
X248900Y149100D02*X252100D01*
X248900D02*Y145900D01*
X252100D01*
Y149100D02*Y145900D01*
X20900Y96600D02*X24100D01*
X20900D02*Y93400D01*
X24100D01*
Y96600D02*Y93400D01*
X20900Y76600D02*X24100D01*
X20900D02*Y73400D01*
X24100D01*
Y76600D02*Y73400D01*
X348900Y149100D02*X352100D01*
X348900D02*Y145900D01*
X352100D01*
Y149100D02*Y145900D01*
X328900Y149100D02*X332100D01*
X328900D02*Y145900D01*
X332100D01*
Y149100D02*Y145900D01*
X308900Y149100D02*X312100D01*
X308900D02*Y145900D01*
X312100D01*
Y149100D02*Y145900D01*
X288900Y149100D02*X292100D01*
X288900D02*Y145900D01*
X292100D01*
Y149100D02*Y145900D01*
X428900Y149100D02*X432100D01*
X428900D02*Y145900D01*
X432100D01*
Y149100D02*Y145900D01*
X408900Y149100D02*X412100D01*
X408900D02*Y145900D01*
X412100D01*
Y149100D02*Y145900D01*
X108900Y149100D02*X112100D01*
X108900D02*Y145900D01*
X112100D01*
Y149100D02*Y145900D01*
X88900Y149100D02*X92100D01*
X88900D02*Y145900D01*
X92100D01*
Y149100D02*Y145900D01*
X188900Y149100D02*X192100D01*
X188900D02*Y145900D01*
X192100D01*
Y149100D02*Y145900D01*
X168900Y149100D02*X172100D01*
X168900D02*Y145900D01*
X172100D01*
Y149100D02*Y145900D01*
X408900Y24100D02*X412100D01*
X408900D02*Y20900D01*
X412100D01*
Y24100D02*Y20900D01*
X428900Y24100D02*X432100D01*
X428900D02*Y20900D01*
X432100D01*
Y24100D02*Y20900D01*
X8900Y24100D02*X12100D01*
X8900D02*Y20900D01*
X12100D01*
Y24100D02*Y20900D01*
X28900Y24100D02*X32100D01*
X28900D02*Y20900D01*
X32100D01*
Y24100D02*Y20900D01*
X525900Y96600D02*X529100D01*
X525900D02*Y93400D01*
X529100D01*
Y96600D02*Y93400D01*
X525900Y116600D02*X529100D01*
X525900D02*Y113400D01*
X529100D01*
Y116600D02*Y113400D01*
X525900Y56600D02*X529100D01*
X525900D02*Y53400D01*
X529100D01*
Y56600D02*Y53400D01*
X525900Y76600D02*X529100D01*
X525900D02*Y73400D01*
X529100D01*
Y76600D02*Y73400D01*
X13400Y212850D02*X16600D01*
X13400D02*Y209650D01*
X16600D01*
Y212850D02*Y209650D01*
X135000Y213500D02*Y212750D01*
X136500Y211250D01*
X138000Y212750D01*
Y213500D02*Y212750D01*
X136500Y211250D02*Y207500D01*
X139800Y210500D02*X142050D01*
X139800Y207500D02*X142800D01*
X139800Y213500D02*Y207500D01*
Y213500D02*X142800D01*
X147600D02*X148350Y212750D01*
X145350Y213500D02*X147600D01*
X144600Y212750D02*X145350Y213500D01*
X144600Y212750D02*Y211250D01*
X145350Y210500D01*
X147600D01*
X148350Y209750D01*
Y208250D01*
X147600Y207500D02*X148350Y208250D01*
X145350Y207500D02*X147600D01*
X144600Y208250D02*X145350Y207500D01*
X98000Y213500D02*X101000D01*
X98000D02*Y210500D01*
X98750Y211250D01*
X100250D01*
X101000Y210500D01*
Y208250D01*
X100250Y207500D02*X101000Y208250D01*
X98750Y207500D02*X100250D01*
X98000Y208250D02*X98750Y207500D01*
X102800Y208250D02*X103550Y207500D01*
X102800Y209750D02*Y208250D01*
Y209750D02*X103550Y210500D01*
X105050D01*
X105800Y209750D01*
Y208250D01*
X105050Y207500D02*X105800Y208250D01*
X103550Y207500D02*X105050D01*
X102800Y211250D02*X103550Y210500D01*
X102800Y212750D02*Y211250D01*
Y212750D02*X103550Y213500D01*
X105050D01*
X105800Y212750D01*
Y211250D01*
X105050Y210500D02*X105800Y211250D01*
X45000Y208250D02*X45750Y207500D01*
X45000Y212750D02*Y208250D01*
Y212750D02*X45750Y213500D01*
X47250D01*
X48000Y212750D01*
Y208250D01*
X47250Y207500D02*X48000Y208250D01*
X45750Y207500D02*X47250D01*
X45000Y209000D02*X48000Y212000D01*
X49800Y207500D02*X50550D01*
X52350Y208250D02*X53100Y207500D01*
X52350Y212750D02*Y208250D01*
Y212750D02*X53100Y213500D01*
X54600D01*
X55350Y212750D01*
Y208250D01*
X54600Y207500D02*X55350Y208250D01*
X53100Y207500D02*X54600D01*
X52350Y209000D02*X55350Y212000D01*
X57150Y210500D02*X60150Y213500D01*
X57150Y210500D02*X60900D01*
X60150Y213500D02*Y207500D01*
X62700Y208250D02*X63450Y207500D01*
X62700Y209750D02*Y208250D01*
Y209750D02*X63450Y210500D01*
X64950D01*
X65700Y209750D01*
Y208250D01*
X64950Y207500D02*X65700Y208250D01*
X63450Y207500D02*X64950D01*
X62700Y211250D02*X63450Y210500D01*
X62700Y212750D02*Y211250D01*
Y212750D02*X63450Y213500D01*
X64950D01*
X65700Y212750D01*
Y211250D01*
X64950Y210500D02*X65700Y211250D01*
X185700Y86500D02*G75*G03X187300Y86500I800J0D01*G01*
G75*G03X185700Y86500I-800J0D01*G01*
X175700D02*G75*G03X177300Y86500I800J0D01*G01*
G75*G03X175700Y86500I-800J0D01*G01*
X165700D02*G75*G03X167300Y86500I800J0D01*G01*
G75*G03X165700Y86500I-800J0D01*G01*
X14200Y226250D02*G75*G03X15800Y226250I800J0D01*G01*
G75*G03X14200Y226250I-800J0D01*G01*
X135000Y228500D02*Y227750D01*
X136500Y226250D01*
X138000Y227750D01*
Y228500D02*Y227750D01*
X136500Y226250D02*Y222500D01*
X139800Y225500D02*X142050D01*
X139800Y222500D02*X142800D01*
X139800Y228500D02*Y222500D01*
Y228500D02*X142800D01*
X147600D02*X148350Y227750D01*
X145350Y228500D02*X147600D01*
X144600Y227750D02*X145350Y228500D01*
X144600Y227750D02*Y226250D01*
X145350Y225500D01*
X147600D01*
X148350Y224750D01*
Y223250D01*
X147600Y222500D02*X148350Y223250D01*
X145350Y222500D02*X147600D01*
X144600Y223250D02*X145350Y222500D01*
X98000Y227750D02*X98750Y228500D01*
X100250D01*
X101000Y227750D01*
Y223250D01*
X100250Y222500D02*X101000Y223250D01*
X98750Y222500D02*X100250D01*
X98000Y223250D02*X98750Y222500D01*
Y225500D02*X101000D01*
X45000Y223250D02*X45750Y222500D01*
X45000Y227750D02*Y223250D01*
Y227750D02*X45750Y228500D01*
X47250D01*
X48000Y227750D01*
Y223250D01*
X47250Y222500D02*X48000Y223250D01*
X45750Y222500D02*X47250D01*
X45000Y224000D02*X48000Y227000D01*
X49800Y222500D02*X50550D01*
X52350Y223250D02*X53100Y222500D01*
X52350Y227750D02*Y223250D01*
Y227750D02*X53100Y228500D01*
X54600D01*
X55350Y227750D01*
Y223250D01*
X54600Y222500D02*X55350Y223250D01*
X53100Y222500D02*X54600D01*
X52350Y224000D02*X55350Y227000D01*
X57150Y225500D02*X60150Y228500D01*
X57150Y225500D02*X60900D01*
X60150Y228500D02*Y222500D01*
X62700Y228500D02*X65700D01*
X62700D02*Y225500D01*
X63450Y226250D01*
X64950D01*
X65700Y225500D01*
Y223250D01*
X64950Y222500D02*X65700Y223250D01*
X63450Y222500D02*X64950D01*
X62700Y223250D02*X63450Y222500D01*
X318800Y73700D02*X321200Y71300D01*
X318800D02*X321200Y73700D01*
X328800Y78700D02*X331200Y76300D01*
X328800D02*X331200Y78700D01*
X318800Y83700D02*X321200Y81300D01*
X318800D02*X321200Y83700D01*
X328800Y88700D02*X331200Y86300D01*
X328800D02*X331200Y88700D01*
X318800Y93700D02*X321200Y91300D01*
X318800D02*X321200Y93700D01*
X328800Y98700D02*X331200Y96300D01*
X328800D02*X331200Y98700D01*
X386800Y73700D02*X389200Y71300D01*
X386800D02*X389200Y73700D01*
X396800Y78700D02*X399200Y76300D01*
X396800D02*X399200Y78700D01*
X386800Y83700D02*X389200Y81300D01*
X386800D02*X389200Y83700D01*
X396800Y88700D02*X399200Y86300D01*
X396800D02*X399200Y88700D01*
X386800Y93700D02*X389200Y91300D01*
X386800D02*X389200Y93700D01*
X396800Y98700D02*X399200Y96300D01*
X396800D02*X399200Y98700D01*
X13800Y242450D02*X16200Y240050D01*
X13800D02*X16200Y242450D01*
X135000Y243500D02*Y242750D01*
X136500Y241250D01*
X138000Y242750D01*
Y243500D02*Y242750D01*
X136500Y241250D02*Y237500D01*
X139800Y240500D02*X142050D01*
X139800Y237500D02*X142800D01*
X139800Y243500D02*Y237500D01*
Y243500D02*X142800D01*
X147600D02*X148350Y242750D01*
X145350Y243500D02*X147600D01*
X144600Y242750D02*X145350Y243500D01*
X144600Y242750D02*Y241250D01*
X145350Y240500D01*
X147600D01*
X148350Y239750D01*
Y238250D01*
X147600Y237500D02*X148350Y238250D01*
X145350Y237500D02*X147600D01*
X144600Y238250D02*X145350Y237500D01*
X98750D02*X100250D01*
X99500Y243500D02*Y237500D01*
X98000Y242000D02*X99500Y243500D01*
X102050Y242750D02*X102800Y243500D01*
X105050D01*
X105800Y242750D01*
Y241250D01*
X102050Y237500D02*X105800Y241250D01*
X102050Y237500D02*X105800D01*
X45000Y238250D02*X45750Y237500D01*
X45000Y242750D02*Y238250D01*
Y242750D02*X45750Y243500D01*
X47250D01*
X48000Y242750D01*
Y238250D01*
X47250Y237500D02*X48000Y238250D01*
X45750Y237500D02*X47250D01*
X45000Y239000D02*X48000Y242000D01*
X49800Y237500D02*X50550D01*
X52350Y238250D02*X53100Y237500D01*
X52350Y242750D02*Y238250D01*
Y242750D02*X53100Y243500D01*
X54600D01*
X55350Y242750D01*
Y238250D01*
X54600Y237500D02*X55350Y238250D01*
X53100Y237500D02*X54600D01*
X52350Y239000D02*X55350Y242000D01*
X57150Y242750D02*X57900Y243500D01*
X59400D01*
X60150Y242750D01*
Y238250D01*
X59400Y237500D02*X60150Y238250D01*
X57900Y237500D02*X59400D01*
X57150Y238250D02*X57900Y237500D01*
Y240500D02*X60150D01*
X61950Y243500D02*X64950D01*
X61950D02*Y240500D01*
X62700Y241250D01*
X64200D01*
X64950Y240500D01*
Y238250D01*
X64200Y237500D02*X64950Y238250D01*
X62700Y237500D02*X64200D01*
X61950Y238250D02*X62700Y237500D01*
X173000Y125100D02*Y121900D01*
X171400Y123500D02*X174600D01*
X168000Y135100D02*Y131900D01*
X166400Y133500D02*X169600D01*
X163000Y125100D02*Y121900D01*
X161400Y123500D02*X164600D01*
X158000Y135100D02*Y131900D01*
X156400Y133500D02*X159600D01*
X153000Y125100D02*Y121900D01*
X151400Y123500D02*X154600D01*
X148000Y135100D02*Y131900D01*
X146400Y133500D02*X149600D01*
X93000Y125100D02*Y121900D01*
X91400Y123500D02*X94600D01*
X88000Y135100D02*Y131900D01*
X86400Y133500D02*X89600D01*
X83000Y125100D02*Y121900D01*
X81400Y123500D02*X84600D01*
X78000Y135100D02*Y131900D01*
X76400Y133500D02*X79600D01*
X73000Y125100D02*Y121900D01*
X71400Y123500D02*X74600D01*
X68000Y135100D02*Y131900D01*
X66400Y133500D02*X69600D01*
X268000Y48100D02*Y44900D01*
X266400Y46500D02*X269600D01*
X273000Y38100D02*Y34900D01*
X271400Y36500D02*X274600D01*
X278000Y48100D02*Y44900D01*
X276400Y46500D02*X279600D01*
X283000Y38100D02*Y34900D01*
X281400Y36500D02*X284600D01*
X288000Y48100D02*Y44900D01*
X286400Y46500D02*X289600D01*
X293000Y38100D02*Y34900D01*
X291400Y36500D02*X294600D01*
X68000Y48100D02*Y44900D01*
X66400Y46500D02*X69600D01*
X73000Y38100D02*Y34900D01*
X71400Y36500D02*X74600D01*
X78000Y48100D02*Y44900D01*
X76400Y46500D02*X79600D01*
X83000Y38100D02*Y34900D01*
X81400Y36500D02*X84600D01*
X88000Y48100D02*Y44900D01*
X86400Y46500D02*X89600D01*
X93000Y38100D02*Y34900D01*
X91400Y36500D02*X94600D01*
X348000Y48100D02*Y44900D01*
X346400Y46500D02*X349600D01*
X353000Y38100D02*Y34900D01*
X351400Y36500D02*X354600D01*
X358000Y48100D02*Y44900D01*
X356400Y46500D02*X359600D01*
X363000Y38100D02*Y34900D01*
X361400Y36500D02*X364600D01*
X368000Y48100D02*Y44900D01*
X366400Y46500D02*X369600D01*
X373000Y38100D02*Y34900D01*
X371400Y36500D02*X374600D01*
X148000Y48100D02*Y44900D01*
X146400Y46500D02*X149600D01*
X153000Y38100D02*Y34900D01*
X151400Y36500D02*X154600D01*
X158000Y48100D02*Y44900D01*
X156400Y46500D02*X159600D01*
X163000Y38100D02*Y34900D01*
X161400Y36500D02*X164600D01*
X168000Y48100D02*Y44900D01*
X166400Y46500D02*X169600D01*
X173000Y38100D02*Y34900D01*
X171400Y36500D02*X174600D01*
X373000Y125100D02*Y121900D01*
X371400Y123500D02*X374600D01*
X368000Y135100D02*Y131900D01*
X366400Y133500D02*X369600D01*
X363000Y125100D02*Y121900D01*
X361400Y123500D02*X364600D01*
X358000Y135100D02*Y131900D01*
X356400Y133500D02*X359600D01*
X353000Y125100D02*Y121900D01*
X351400Y123500D02*X354600D01*
X348000Y135100D02*Y131900D01*
X346400Y133500D02*X349600D01*
X293000Y125100D02*Y121900D01*
X291400Y123500D02*X294600D01*
X288000Y135100D02*Y131900D01*
X286400Y133500D02*X289600D01*
X283000Y125100D02*Y121900D01*
X281400Y123500D02*X284600D01*
X278000Y135100D02*Y131900D01*
X276400Y133500D02*X279600D01*
X273000Y125100D02*Y121900D01*
X271400Y123500D02*X274600D01*
X268000Y135100D02*Y131900D01*
X266400Y133500D02*X269600D01*
X468000Y48100D02*Y44900D01*
X466400Y46500D02*X469600D01*
X473000Y38100D02*Y34900D01*
X471400Y36500D02*X474600D01*
X478000Y48100D02*Y44900D01*
X476400Y46500D02*X479600D01*
X483000Y38100D02*Y34900D01*
X481400Y36500D02*X484600D01*
X488000Y48100D02*Y44900D01*
X486400Y46500D02*X489600D01*
X493000Y38100D02*Y34900D01*
X491400Y36500D02*X494600D01*
X493000Y125100D02*Y121900D01*
X491400Y123500D02*X494600D01*
X488000Y135100D02*Y131900D01*
X486400Y133500D02*X489600D01*
X483000Y125100D02*Y121900D01*
X481400Y123500D02*X484600D01*
X478000Y135100D02*Y131900D01*
X476400Y133500D02*X479600D01*
X473000Y125100D02*Y121900D01*
X471400Y123500D02*X474600D01*
X468000Y135100D02*Y131900D01*
X466400Y133500D02*X469600D01*
X15000Y257850D02*Y254650D01*
X13400Y256250D02*X16600D01*
X135000Y258500D02*Y257750D01*
X136500Y256250D01*
X138000Y257750D01*
Y258500D02*Y257750D01*
X136500Y256250D02*Y252500D01*
X139800Y255500D02*X142050D01*
X139800Y252500D02*X142800D01*
X139800Y258500D02*Y252500D01*
Y258500D02*X142800D01*
X147600D02*X148350Y257750D01*
X145350Y258500D02*X147600D01*
X144600Y257750D02*X145350Y258500D01*
X144600Y257750D02*Y256250D01*
X145350Y255500D01*
X147600D01*
X148350Y254750D01*
Y253250D01*
X147600Y252500D02*X148350Y253250D01*
X145350Y252500D02*X147600D01*
X144600Y253250D02*X145350Y252500D01*
X100250Y258500D02*X101000Y257750D01*
X98750Y258500D02*X100250D01*
X98000Y257750D02*X98750Y258500D01*
X98000Y257750D02*Y253250D01*
X98750Y252500D01*
X100250Y255500D02*X101000Y254750D01*
X98000Y255500D02*X100250D01*
X98750Y252500D02*X100250D01*
X101000Y253250D01*
Y254750D02*Y253250D01*
X102800D02*X103550Y252500D01*
X102800Y257750D02*Y253250D01*
Y257750D02*X103550Y258500D01*
X105050D01*
X105800Y257750D01*
Y253250D01*
X105050Y252500D02*X105800Y253250D01*
X103550Y252500D02*X105050D01*
X102800Y254000D02*X105800Y257000D01*
X45000Y253250D02*X45750Y252500D01*
X45000Y257750D02*Y253250D01*
Y257750D02*X45750Y258500D01*
X47250D01*
X48000Y257750D01*
Y253250D01*
X47250Y252500D02*X48000Y253250D01*
X45750Y252500D02*X47250D01*
X45000Y254000D02*X48000Y257000D01*
X49800Y252500D02*X50550D01*
X52350Y253250D02*X53100Y252500D01*
X52350Y257750D02*Y253250D01*
Y257750D02*X53100Y258500D01*
X54600D01*
X55350Y257750D01*
Y253250D01*
X54600Y252500D02*X55350Y253250D01*
X53100Y252500D02*X54600D01*
X52350Y254000D02*X55350Y257000D01*
X57150Y257750D02*X57900Y258500D01*
X59400D01*
X60150Y257750D01*
Y253250D01*
X59400Y252500D02*X60150Y253250D01*
X57900Y252500D02*X59400D01*
X57150Y253250D02*X57900Y252500D01*
Y255500D02*X60150D01*
X61950Y253250D02*X62700Y252500D01*
X61950Y257750D02*Y253250D01*
Y257750D02*X62700Y258500D01*
X64200D01*
X64950Y257750D01*
Y253250D01*
X64200Y252500D02*X64950Y253250D01*
X62700Y252500D02*X64200D01*
X61950Y254000D02*X64950Y257000D01*
X255500Y28500D02*Y26900D01*
Y28500D02*X256887Y29300D01*
X255500Y28500D02*X254113Y29300D01*
X304000Y74000D02*Y72400D01*
Y74000D02*X305387Y74800D01*
X304000Y74000D02*X302613Y74800D01*
X287500Y79500D02*Y77900D01*
Y79500D02*X288887Y80300D01*
X287500Y79500D02*X286113Y80300D01*
X304000Y85000D02*Y83400D01*
Y85000D02*X305387Y85800D01*
X304000Y85000D02*X302613Y85800D01*
X281500Y92000D02*Y90400D01*
Y92000D02*X282887Y92800D01*
X281500Y92000D02*X280113Y92800D01*
X248000Y94000D02*Y92400D01*
Y94000D02*X249387Y94800D01*
X248000Y94000D02*X246613Y94800D01*
X262000Y76000D02*Y74400D01*
Y76000D02*X263387Y76800D01*
X262000Y76000D02*X260613Y76800D01*
X192000Y66500D02*Y64900D01*
Y66500D02*X193387Y67300D01*
X192000Y66500D02*X190613Y67300D01*
X207500Y66500D02*Y64900D01*
Y66500D02*X208887Y67300D01*
X207500Y66500D02*X206113Y67300D01*
X192000Y71000D02*Y69400D01*
Y71000D02*X193387Y71800D01*
X192000Y71000D02*X190613Y71800D01*
X192000Y75500D02*Y73900D01*
Y75500D02*X193387Y76300D01*
X192000Y75500D02*X190613Y76300D01*
X207500Y71000D02*Y69400D01*
Y71000D02*X208887Y71800D01*
X207500Y71000D02*X206113Y71800D01*
X228500Y76500D02*Y74900D01*
Y76500D02*X229887Y77300D01*
X228500Y76500D02*X227113Y77300D01*
X233000Y76500D02*Y74900D01*
Y76500D02*X234387Y77300D01*
X233000Y76500D02*X231613Y77300D01*
X186000Y38000D02*Y36400D01*
Y38000D02*X187387Y38800D01*
X186000Y38000D02*X184613Y38800D01*
X179000Y31000D02*Y29400D01*
Y31000D02*X180387Y31800D01*
X179000Y31000D02*X177613Y31800D01*
X182500Y34500D02*Y32900D01*
Y34500D02*X183887Y35300D01*
X182500Y34500D02*X181113Y35300D01*
X183000Y41500D02*Y39900D01*
Y41500D02*X184387Y42300D01*
X183000Y41500D02*X181613Y42300D01*
X183000Y46000D02*Y44400D01*
Y46000D02*X184387Y46800D01*
X183000Y46000D02*X181613Y46800D01*
X195000Y42500D02*Y40900D01*
Y42500D02*X196387Y43300D01*
X195000Y42500D02*X193613Y43300D01*
X191500Y46000D02*Y44400D01*
Y46000D02*X192887Y46800D01*
X191500Y46000D02*X190113Y46800D01*
X228500Y93500D02*Y91900D01*
Y93500D02*X229887Y94300D01*
X228500Y93500D02*X227113Y94300D01*
X233000Y93500D02*Y91900D01*
Y93500D02*X234387Y94300D01*
X233000Y93500D02*X231613Y94300D01*
X137500Y121500D02*Y119900D01*
Y121500D02*X138887Y122300D01*
X137500Y121500D02*X136113Y122300D01*
X140000Y117500D02*Y115900D01*
Y117500D02*X141387Y118300D01*
X140000Y117500D02*X138613Y118300D01*
X137500Y113500D02*Y111900D01*
Y113500D02*X138887Y114300D01*
X137500Y113500D02*X136113Y114300D01*
X140000Y109500D02*Y107900D01*
Y109500D02*X141387Y110300D01*
X140000Y109500D02*X138613Y110300D01*
X244000Y126500D02*Y124900D01*
Y126500D02*X245387Y127300D01*
X244000Y126500D02*X242613Y127300D01*
X249000Y126500D02*Y124900D01*
Y126500D02*X250387Y127300D01*
X249000Y126500D02*X247613Y127300D01*
X254000Y126500D02*Y124900D01*
Y126500D02*X255387Y127300D01*
X254000Y126500D02*X252613Y127300D01*
X259000Y126500D02*Y124900D01*
Y126500D02*X260387Y127300D01*
X259000Y126500D02*X257613Y127300D01*
X256500Y45000D02*Y43400D01*
Y45000D02*X257887Y45800D01*
X256500Y45000D02*X255113Y45800D01*
X339500Y121000D02*Y119400D01*
Y121000D02*X340887Y121800D01*
X339500Y121000D02*X338113Y121800D01*
X335000Y121000D02*Y119400D01*
Y121000D02*X336387Y121800D01*
X335000Y121000D02*X333613Y121800D01*
X304000Y95000D02*Y93400D01*
Y95000D02*X305387Y95800D01*
X304000Y95000D02*X302613Y95800D01*
X248500Y39500D02*Y37900D01*
Y39500D02*X249887Y40300D01*
X248500Y39500D02*X247113Y40300D01*
X277000Y93000D02*Y91400D01*
Y93000D02*X278387Y93800D01*
X277000Y93000D02*X275613Y93800D01*
X253000Y39500D02*Y37900D01*
Y39500D02*X254387Y40300D01*
X253000Y39500D02*X251613Y40300D01*
X244000Y39500D02*Y37900D01*
Y39500D02*X245387Y40300D01*
X244000Y39500D02*X242613Y40300D01*
X369500Y63000D02*Y61400D01*
Y63000D02*X370887Y63800D01*
X369500Y63000D02*X368113Y63800D01*
X344500Y109500D02*Y107900D01*
Y109500D02*X345887Y110300D01*
X344500Y109500D02*X343113Y110300D01*
X339500Y109500D02*Y107900D01*
Y109500D02*X340887Y110300D01*
X339500Y109500D02*X338113Y110300D01*
X393000Y119500D02*Y117900D01*
Y119500D02*X394387Y120300D01*
X393000Y119500D02*X391613Y120300D01*
X398000Y119500D02*Y117900D01*
Y119500D02*X399387Y120300D01*
X398000Y119500D02*X396613Y120300D01*
X343500Y61500D02*Y59900D01*
Y61500D02*X344887Y62300D01*
X343500Y61500D02*X342113Y62300D01*
X338500Y61500D02*Y59900D01*
Y61500D02*X339887Y62300D01*
X338500Y61500D02*X337113Y62300D01*
X333500Y61500D02*Y59900D01*
Y61500D02*X334887Y62300D01*
X333500Y61500D02*X332113Y62300D01*
X373500Y108000D02*Y106400D01*
Y108000D02*X374887Y108800D01*
X373500Y108000D02*X372113Y108800D01*
X391500Y48000D02*Y46400D01*
Y48000D02*X392887Y48800D01*
X391500Y48000D02*X390113Y48800D01*
X311000Y79500D02*Y77900D01*
Y79500D02*X312387Y80300D01*
X311000Y79500D02*X309613Y80300D01*
X309500Y98500D02*Y96900D01*
Y98500D02*X310887Y99300D01*
X309500Y98500D02*X308113Y99300D01*
X412500Y80500D02*Y78900D01*
Y80500D02*X413887Y81300D01*
X412500Y80500D02*X411113Y81300D01*
X481000Y100000D02*Y98400D01*
Y100000D02*X482387Y100800D01*
X481000Y100000D02*X479613Y100800D01*
X481000Y60000D02*Y58400D01*
Y60000D02*X482387Y60800D01*
X481000Y60000D02*X479613Y60800D01*
X488000Y74500D02*Y72900D01*
Y74500D02*X489387Y75300D01*
X488000Y74500D02*X486613Y75300D01*
X15000Y271250D02*Y269650D01*
Y271250D02*X16387Y272050D01*
X15000Y271250D02*X13613Y272050D01*
X135000Y273500D02*Y272750D01*
X136500Y271250D01*
X138000Y272750D01*
Y273500D02*Y272750D01*
X136500Y271250D02*Y267500D01*
X139800Y270500D02*X142050D01*
X139800Y267500D02*X142800D01*
X139800Y273500D02*Y267500D01*
Y273500D02*X142800D01*
X147600D02*X148350Y272750D01*
X145350Y273500D02*X147600D01*
X144600Y272750D02*X145350Y273500D01*
X144600Y272750D02*Y271250D01*
X145350Y270500D01*
X147600D01*
X148350Y269750D01*
Y268250D01*
X147600Y267500D02*X148350Y268250D01*
X145350Y267500D02*X147600D01*
X144600Y268250D02*X145350Y267500D01*
X98000Y273500D02*X101000D01*
X98000D02*Y270500D01*
X98750Y271250D01*
X100250D01*
X101000Y270500D01*
Y268250D01*
X100250Y267500D02*X101000Y268250D01*
X98750Y267500D02*X100250D01*
X98000Y268250D02*X98750Y267500D01*
X102800Y273500D02*X105800D01*
X102800D02*Y270500D01*
X103550Y271250D01*
X105050D01*
X105800Y270500D01*
Y268250D01*
X105050Y267500D02*X105800Y268250D01*
X103550Y267500D02*X105050D01*
X102800Y268250D02*X103550Y267500D01*
X45000Y268250D02*X45750Y267500D01*
X45000Y272750D02*Y268250D01*
Y272750D02*X45750Y273500D01*
X47250D01*
X48000Y272750D01*
Y268250D01*
X47250Y267500D02*X48000Y268250D01*
X45750Y267500D02*X47250D01*
X45000Y269000D02*X48000Y272000D01*
X49800Y267500D02*X50550D01*
X52350Y268250D02*X53100Y267500D01*
X52350Y272750D02*Y268250D01*
Y272750D02*X53100Y273500D01*
X54600D01*
X55350Y272750D01*
Y268250D01*
X54600Y267500D02*X55350Y268250D01*
X53100Y267500D02*X54600D01*
X52350Y269000D02*X55350Y272000D01*
X57150Y272750D02*X57900Y273500D01*
X60150D01*
X60900Y272750D01*
Y271250D01*
X57150Y267500D02*X60900Y271250D01*
X57150Y267500D02*X60900D01*
X62700Y268250D02*X63450Y267500D01*
X62700Y272750D02*Y268250D01*
Y272750D02*X63450Y273500D01*
X64950D01*
X65700Y272750D01*
Y268250D01*
X64950Y267500D02*X65700Y268250D01*
X63450Y267500D02*X64950D01*
X62700Y269000D02*X65700Y272000D01*
X3000Y288500D02*X3750Y287750D01*
X750Y288500D02*X3000D01*
X0Y287750D02*X750Y288500D01*
X0Y287750D02*Y286250D01*
X750Y285500D01*
X3000D01*
X3750Y284750D01*
Y283250D01*
X3000Y282500D02*X3750Y283250D01*
X750Y282500D02*X3000D01*
X0Y283250D02*X750Y282500D01*
X5550Y285500D02*Y283250D01*
X6300Y282500D01*
X8550Y285500D02*Y281000D01*
X7800Y280250D02*X8550Y281000D01*
X6300Y280250D02*X7800D01*
X5550Y281000D02*X6300Y280250D01*
Y282500D02*X7800D01*
X8550Y283250D01*
X11100Y284750D02*Y282500D01*
Y284750D02*X11850Y285500D01*
X12600D01*
X13350Y284750D01*
Y282500D01*
Y284750D02*X14100Y285500D01*
X14850D01*
X15600Y284750D01*
Y282500D01*
X10350Y285500D02*X11100Y284750D01*
X17400Y288500D02*Y282500D01*
Y283250D02*X18150Y282500D01*
X19650D01*
X20400Y283250D01*
Y284750D02*Y283250D01*
X19650Y285500D02*X20400Y284750D01*
X18150Y285500D02*X19650D01*
X17400Y284750D02*X18150Y285500D01*
X22200Y284750D02*Y283250D01*
Y284750D02*X22950Y285500D01*
X24450D01*
X25200Y284750D01*
Y283250D01*
X24450Y282500D02*X25200Y283250D01*
X22950Y282500D02*X24450D01*
X22200Y283250D02*X22950Y282500D01*
X27000Y288500D02*Y283250D01*
X27750Y282500D01*
X0Y279250D02*X29250D01*
X41750Y288500D02*Y282500D01*
X44000Y288500D02*X44750Y287750D01*
Y283250D01*
X44000Y282500D02*X44750Y283250D01*
X41000Y282500D02*X44000D01*
X41000Y288500D02*X44000D01*
X46550Y287000D02*Y286250D01*
Y284750D02*Y282500D01*
X50300Y285500D02*X51050Y284750D01*
X48800Y285500D02*X50300D01*
X48050Y284750D02*X48800Y285500D01*
X48050Y284750D02*Y283250D01*
X48800Y282500D01*
X51050Y285500D02*Y283250D01*
X51800Y282500D01*
X48800D02*X50300D01*
X51050Y283250D01*
X54350Y284750D02*Y282500D01*
Y284750D02*X55100Y285500D01*
X55850D01*
X56600Y284750D01*
Y282500D01*
Y284750D02*X57350Y285500D01*
X58100D01*
X58850Y284750D01*
Y282500D01*
X53600Y285500D02*X54350Y284750D01*
X60650Y282500D02*X61400D01*
X65900Y283250D02*X66650Y282500D01*
X65900Y287750D02*X66650Y288500D01*
X65900Y287750D02*Y283250D01*
X68450Y288500D02*X69950D01*
X69200D02*Y282500D01*
X68450D02*X69950D01*
X72500Y284750D02*Y282500D01*
Y284750D02*X73250Y285500D01*
X74000D01*
X74750Y284750D01*
Y282500D01*
X71750Y285500D02*X72500Y284750D01*
X77300Y285500D02*X79550D01*
X76550Y284750D02*X77300Y285500D01*
X76550Y284750D02*Y283250D01*
X77300Y282500D01*
X79550D01*
X81350Y288500D02*Y282500D01*
Y284750D02*X82100Y285500D01*
X83600D01*
X84350Y284750D01*
Y282500D01*
X86150Y288500D02*X86900Y287750D01*
Y283250D01*
X86150Y282500D02*X86900Y283250D01*
X41000Y279250D02*X88700D01*
X95750Y282500D02*X98000D01*
X95000Y283250D02*X95750Y282500D01*
X95000Y287750D02*Y283250D01*
Y287750D02*X95750Y288500D01*
X98000D01*
X99800Y284750D02*Y283250D01*
Y284750D02*X100550Y285500D01*
X102050D01*
X102800Y284750D01*
Y283250D01*
X102050Y282500D02*X102800Y283250D01*
X100550Y282500D02*X102050D01*
X99800Y283250D02*X100550Y282500D01*
X104600Y285500D02*Y283250D01*
X105350Y282500D01*
X106850D01*
X107600Y283250D01*
Y285500D02*Y283250D01*
X110150Y284750D02*Y282500D01*
Y284750D02*X110900Y285500D01*
X111650D01*
X112400Y284750D01*
Y282500D01*
X109400Y285500D02*X110150Y284750D01*
X114950Y288500D02*Y283250D01*
X115700Y282500D01*
X114200Y286250D02*X115700D01*
X95000Y279250D02*X117200D01*
X130750Y288500D02*Y282500D01*
X130000Y288500D02*X133000D01*
X133750Y287750D01*
Y286250D01*
X133000Y285500D02*X133750Y286250D01*
X130750Y285500D02*X133000D01*
X135550Y288500D02*Y283250D01*
X136300Y282500D01*
X140050Y285500D02*X140800Y284750D01*
X138550Y285500D02*X140050D01*
X137800Y284750D02*X138550Y285500D01*
X137800Y284750D02*Y283250D01*
X138550Y282500D01*
X140800Y285500D02*Y283250D01*
X141550Y282500D01*
X138550D02*X140050D01*
X140800Y283250D01*
X144100Y288500D02*Y283250D01*
X144850Y282500D01*
X143350Y286250D02*X144850D01*
X147100Y282500D02*X149350D01*
X146350Y283250D02*X147100Y282500D01*
X146350Y284750D02*Y283250D01*
Y284750D02*X147100Y285500D01*
X148600D01*
X149350Y284750D01*
X146350Y284000D02*X149350D01*
Y284750D02*Y284000D01*
X154150Y288500D02*Y282500D01*
X153400D02*X154150Y283250D01*
X151900Y282500D02*X153400D01*
X151150Y283250D02*X151900Y282500D01*
X151150Y284750D02*Y283250D01*
Y284750D02*X151900Y285500D01*
X153400D01*
X154150Y284750D01*
X157450Y285500D02*Y284750D01*
Y283250D02*Y282500D01*
X155950Y287750D02*Y287000D01*
Y287750D02*X156700Y288500D01*
X158200D01*
X158950Y287750D01*
Y287000D01*
X157450Y285500D02*X158950Y287000D01*
X130000Y279250D02*X160750D01*
X0Y303500D02*X3000D01*
X1500D02*Y297500D01*
X4800Y303500D02*Y297500D01*
Y299750D02*X5550Y300500D01*
X7050D01*
X7800Y299750D01*
Y297500D01*
X10350D02*X12600D01*
X9600Y298250D02*X10350Y297500D01*
X9600Y299750D02*Y298250D01*
Y299750D02*X10350Y300500D01*
X11850D01*
X12600Y299750D01*
X9600Y299000D02*X12600D01*
Y299750D02*Y299000D01*
X15150Y299750D02*Y297500D01*
Y299750D02*X15900Y300500D01*
X17400D01*
X14400D02*X15150Y299750D01*
X19950Y297500D02*X22200D01*
X19200Y298250D02*X19950Y297500D01*
X19200Y299750D02*Y298250D01*
Y299750D02*X19950Y300500D01*
X21450D01*
X22200Y299750D01*
X19200Y299000D02*X22200D01*
Y299750D02*Y299000D01*
X28950Y300500D02*X29700Y299750D01*
X27450Y300500D02*X28950D01*
X26700Y299750D02*X27450Y300500D01*
X26700Y299750D02*Y298250D01*
X27450Y297500D01*
X29700Y300500D02*Y298250D01*
X30450Y297500D01*
X27450D02*X28950D01*
X29700Y298250D01*
X33000Y299750D02*Y297500D01*
Y299750D02*X33750Y300500D01*
X35250D01*
X32250D02*X33000Y299750D01*
X37800Y297500D02*X40050D01*
X37050Y298250D02*X37800Y297500D01*
X37050Y299750D02*Y298250D01*
Y299750D02*X37800Y300500D01*
X39300D01*
X40050Y299750D01*
X37050Y299000D02*X40050D01*
Y299750D02*Y299000D01*
X44550Y297500D02*X48300Y301250D01*
Y303500D02*Y301250D01*
X44550Y303500D02*X48300D01*
X55800D02*Y297500D01*
X55050D02*X55800Y298250D01*
X53550Y297500D02*X55050D01*
X52800Y298250D02*X53550Y297500D01*
X52800Y299750D02*Y298250D01*
Y299750D02*X53550Y300500D01*
X55050D01*
X55800Y299750D01*
X57600Y302000D02*Y301250D01*
Y299750D02*Y297500D01*
X59850Y302750D02*Y297500D01*
Y302750D02*X60600Y303500D01*
X61350D01*
X59100Y300500D02*X60600D01*
X63600Y302750D02*Y297500D01*
Y302750D02*X64350Y303500D01*
X65100D01*
X62850Y300500D02*X64350D01*
X67350Y297500D02*X69600D01*
X66600Y298250D02*X67350Y297500D01*
X66600Y299750D02*Y298250D01*
Y299750D02*X67350Y300500D01*
X68850D01*
X69600Y299750D01*
X66600Y299000D02*X69600D01*
Y299750D02*Y299000D01*
X72150Y299750D02*Y297500D01*
Y299750D02*X72900Y300500D01*
X74400D01*
X71400D02*X72150Y299750D01*
X76950Y297500D02*X79200D01*
X76200Y298250D02*X76950Y297500D01*
X76200Y299750D02*Y298250D01*
Y299750D02*X76950Y300500D01*
X78450D01*
X79200Y299750D01*
X76200Y299000D02*X79200D01*
Y299750D02*Y299000D01*
X81750Y299750D02*Y297500D01*
Y299750D02*X82500Y300500D01*
X83250D01*
X84000Y299750D01*
Y297500D01*
X81000Y300500D02*X81750Y299750D01*
X86550Y303500D02*Y298250D01*
X87300Y297500D01*
X85800Y301250D02*X87300D01*
X94500Y303500D02*Y297500D01*
X93750D02*X94500Y298250D01*
X92250Y297500D02*X93750D01*
X91500Y298250D02*X92250Y297500D01*
X91500Y299750D02*Y298250D01*
Y299750D02*X92250Y300500D01*
X93750D01*
X94500Y299750D01*
X97050D02*Y297500D01*
Y299750D02*X97800Y300500D01*
X99300D01*
X96300D02*X97050Y299750D01*
X101100Y302000D02*Y301250D01*
Y299750D02*Y297500D01*
X102600Y303500D02*Y298250D01*
X103350Y297500D01*
X104850Y303500D02*Y298250D01*
X105600Y297500D01*
X110550D02*X112800D01*
X113550Y298250D01*
X112800Y299000D02*X113550Y298250D01*
X110550Y299000D02*X112800D01*
X109800Y299750D02*X110550Y299000D01*
X109800Y299750D02*X110550Y300500D01*
X112800D01*
X113550Y299750D01*
X109800Y298250D02*X110550Y297500D01*
X115350Y302000D02*Y301250D01*
Y299750D02*Y297500D01*
X116850Y300500D02*X119850D01*
X116850Y297500D02*X119850Y300500D01*
X116850Y297500D02*X119850D01*
X122400D02*X124650D01*
X121650Y298250D02*X122400Y297500D01*
X121650Y299750D02*Y298250D01*
Y299750D02*X122400Y300500D01*
X123900D01*
X124650Y299750D01*
X121650Y299000D02*X124650D01*
Y299750D02*Y299000D01*
X127200Y297500D02*X129450D01*
X130200Y298250D01*
X129450Y299000D02*X130200Y298250D01*
X127200Y299000D02*X129450D01*
X126450Y299750D02*X127200Y299000D01*
X126450Y299750D02*X127200Y300500D01*
X129450D01*
X130200Y299750D01*
X126450Y298250D02*X127200Y297500D01*
X134700Y300500D02*Y298250D01*
X135450Y297500D01*
X136950D01*
X137700Y298250D01*
Y300500D02*Y298250D01*
X140250Y297500D02*X142500D01*
X143250Y298250D01*
X142500Y299000D02*X143250Y298250D01*
X140250Y299000D02*X142500D01*
X139500Y299750D02*X140250Y299000D01*
X139500Y299750D02*X140250Y300500D01*
X142500D01*
X143250Y299750D01*
X139500Y298250D02*X140250Y297500D01*
X145800D02*X148050D01*
X145050Y298250D02*X145800Y297500D01*
X145050Y299750D02*Y298250D01*
Y299750D02*X145800Y300500D01*
X147300D01*
X148050Y299750D01*
X145050Y299000D02*X148050D01*
Y299750D02*Y299000D01*
X152850Y303500D02*Y297500D01*
X152100D02*X152850Y298250D01*
X150600Y297500D02*X152100D01*
X149850Y298250D02*X150600Y297500D01*
X149850Y299750D02*Y298250D01*
Y299750D02*X150600Y300500D01*
X152100D01*
X152850Y299750D01*
X157350Y302000D02*Y301250D01*
Y299750D02*Y297500D01*
X159600Y299750D02*Y297500D01*
Y299750D02*X160350Y300500D01*
X161100D01*
X161850Y299750D01*
Y297500D01*
X158850Y300500D02*X159600Y299750D01*
X167100Y303500D02*Y298250D01*
X167850Y297500D01*
X166350Y301250D02*X167850D01*
X169350Y303500D02*Y297500D01*
Y299750D02*X170100Y300500D01*
X171600D01*
X172350Y299750D01*
Y297500D01*
X174150Y302000D02*Y301250D01*
Y299750D02*Y297500D01*
X176400D02*X178650D01*
X179400Y298250D01*
X178650Y299000D02*X179400Y298250D01*
X176400Y299000D02*X178650D01*
X175650Y299750D02*X176400Y299000D01*
X175650Y299750D02*X176400Y300500D01*
X178650D01*
X179400Y299750D01*
X175650Y298250D02*X176400Y297500D01*
X183900Y303500D02*Y298250D01*
X184650Y297500D01*
X188400Y300500D02*X189150Y299750D01*
X186900Y300500D02*X188400D01*
X186150Y299750D02*X186900Y300500D01*
X186150Y299750D02*Y298250D01*
X186900Y297500D01*
X189150Y300500D02*Y298250D01*
X189900Y297500D01*
X186900D02*X188400D01*
X189150Y298250D01*
X191700Y300500D02*Y298250D01*
X192450Y297500D01*
X194700Y300500D02*Y296000D01*
X193950Y295250D02*X194700Y296000D01*
X192450Y295250D02*X193950D01*
X191700Y296000D02*X192450Y295250D01*
Y297500D02*X193950D01*
X194700Y298250D01*
X196500Y299750D02*Y298250D01*
Y299750D02*X197250Y300500D01*
X198750D01*
X199500Y299750D01*
Y298250D01*
X198750Y297500D02*X199500Y298250D01*
X197250Y297500D02*X198750D01*
X196500Y298250D02*X197250Y297500D01*
X201300Y300500D02*Y298250D01*
X202050Y297500D01*
X203550D01*
X204300Y298250D01*
Y300500D02*Y298250D01*
X206850Y303500D02*Y298250D01*
X207600Y297500D01*
X206100Y301250D02*X207600D01*
X209100Y296000D02*X210600Y297500D01*
X215100Y302750D02*X215850Y303500D01*
X218100D01*
X218850Y302750D01*
Y301250D01*
X215100Y297500D02*X218850Y301250D01*
X215100Y297500D02*X218850D01*
X221400D02*X222900D01*
X222150Y303500D02*Y297500D01*
X220650Y302000D02*X222150Y303500D01*
X224700Y300500D02*X227700Y303500D01*
X224700Y300500D02*X228450D01*
X227700Y303500D02*Y297500D01*
X232950Y303500D02*Y297500D01*
Y299750D02*X233700Y300500D01*
X235200D01*
X235950Y299750D01*
Y297500D01*
X237750Y299750D02*Y298250D01*
Y299750D02*X238500Y300500D01*
X240000D01*
X240750Y299750D01*
Y298250D01*
X240000Y297500D02*X240750Y298250D01*
X238500Y297500D02*X240000D01*
X237750Y298250D02*X238500Y297500D01*
X242550Y303500D02*Y298250D01*
X243300Y297500D01*
X245550D02*X247800D01*
X244800Y298250D02*X245550Y297500D01*
X244800Y299750D02*Y298250D01*
Y299750D02*X245550Y300500D01*
X247050D01*
X247800Y299750D01*
X244800Y299000D02*X247800D01*
Y299750D02*Y299000D01*
X250350Y297500D02*X252600D01*
X253350Y298250D01*
X252600Y299000D02*X253350Y298250D01*
X250350Y299000D02*X252600D01*
X249600Y299750D02*X250350Y299000D01*
X249600Y299750D02*X250350Y300500D01*
X252600D01*
X253350Y299750D01*
X249600Y298250D02*X250350Y297500D01*
X258600Y303500D02*Y298250D01*
X259350Y297500D01*
X257850Y301250D02*X259350D01*
X260850Y299750D02*Y298250D01*
Y299750D02*X261600Y300500D01*
X263100D01*
X263850Y299750D01*
Y298250D01*
X263100Y297500D02*X263850Y298250D01*
X261600Y297500D02*X263100D01*
X260850Y298250D02*X261600Y297500D01*
X266400Y303500D02*Y298250D01*
X267150Y297500D01*
X265650Y301250D02*X267150D01*
X270900Y300500D02*X271650Y299750D01*
X269400Y300500D02*X270900D01*
X268650Y299750D02*X269400Y300500D01*
X268650Y299750D02*Y298250D01*
X269400Y297500D01*
X271650Y300500D02*Y298250D01*
X272400Y297500D01*
X269400D02*X270900D01*
X271650Y298250D01*
X274200Y303500D02*Y298250D01*
X274950Y297500D01*
G54D88*X0Y170000D02*X550000D01*
Y0D01*
X0D01*
Y170000D01*
G54D87*X188675Y-9500D02*X191675D01*
X192425Y-8750D01*
Y-7250D02*Y-8750D01*
X191675Y-6500D02*X192425Y-7250D01*
X189425Y-6500D02*X191675D01*
X189425Y-3500D02*Y-9500D01*
X188675Y-3500D02*X191675D01*
X192425Y-4250D01*
Y-5750D01*
X191675Y-6500D02*X192425Y-5750D01*
X194225Y-7250D02*Y-8750D01*
Y-7250D02*X194975Y-6500D01*
X196475D01*
X197225Y-7250D01*
Y-8750D01*
X196475Y-9500D02*X197225Y-8750D01*
X194975Y-9500D02*X196475D01*
X194225Y-8750D02*X194975Y-9500D01*
X201275Y-6500D02*X202025Y-7250D01*
X199775Y-6500D02*X201275D01*
X199025Y-7250D02*X199775Y-6500D01*
X199025Y-7250D02*Y-8750D01*
X199775Y-9500D01*
X202025Y-6500D02*Y-8750D01*
X202775Y-9500D01*
X199775D02*X201275D01*
X202025Y-8750D01*
X205325Y-7250D02*Y-9500D01*
Y-7250D02*X206075Y-6500D01*
X207575D01*
X204575D02*X205325Y-7250D01*
X212375Y-3500D02*Y-9500D01*
X211625D02*X212375Y-8750D01*
X210125Y-9500D02*X211625D01*
X209375Y-8750D02*X210125Y-9500D01*
X209375Y-7250D02*Y-8750D01*
Y-7250D02*X210125Y-6500D01*
X211625D01*
X212375Y-7250D01*
X216875D02*Y-8750D01*
Y-7250D02*X217625Y-6500D01*
X219125D01*
X219875Y-7250D01*
Y-8750D01*
X219125Y-9500D02*X219875Y-8750D01*
X217625Y-9500D02*X219125D01*
X216875Y-8750D02*X217625Y-9500D01*
X221675Y-6500D02*Y-8750D01*
X222425Y-9500D01*
X223925D01*
X224675Y-8750D01*
Y-6500D02*Y-8750D01*
X227225Y-3500D02*Y-8750D01*
X227975Y-9500D01*
X226475Y-5750D02*X227975D01*
X229475Y-3500D02*Y-8750D01*
X230225Y-9500D01*
X231725Y-5000D02*Y-5750D01*
Y-7250D02*Y-9500D01*
X233975Y-7250D02*Y-9500D01*
Y-7250D02*X234725Y-6500D01*
X235475D01*
X236225Y-7250D01*
Y-9500D01*
X233225Y-6500D02*X233975Y-7250D01*
X238775Y-9500D02*X241025D01*
X238025Y-8750D02*X238775Y-9500D01*
X238025Y-7250D02*Y-8750D01*
Y-7250D02*X238775Y-6500D01*
X240275D01*
X241025Y-7250D01*
X238025Y-8000D02*X241025D01*
Y-7250D02*Y-8000D01*
X245525Y-5000D02*Y-5750D01*
Y-7250D02*Y-9500D01*
X247775D02*X250025D01*
X250775Y-8750D01*
X250025Y-8000D02*X250775Y-8750D01*
X247775Y-8000D02*X250025D01*
X247025Y-7250D02*X247775Y-8000D01*
X247025Y-7250D02*X247775Y-6500D01*
X250025D01*
X250775Y-7250D01*
X247025Y-8750D02*X247775Y-9500D01*
X256025Y-3500D02*Y-8750D01*
X256775Y-9500D01*
X255275Y-5750D02*X256775D01*
X258275Y-3500D02*Y-9500D01*
Y-7250D02*X259025Y-6500D01*
X260525D01*
X261275Y-7250D01*
Y-9500D01*
X263825D02*X266075D01*
X263075Y-8750D02*X263825Y-9500D01*
X263075Y-7250D02*Y-8750D01*
Y-7250D02*X263825Y-6500D01*
X265325D01*
X266075Y-7250D01*
X263075Y-8000D02*X266075D01*
Y-7250D02*Y-8000D01*
X271325Y-6500D02*X273575D01*
X270575Y-7250D02*X271325Y-6500D01*
X270575Y-7250D02*Y-8750D01*
X271325Y-9500D01*
X273575D01*
X276125D02*X278375D01*
X275375Y-8750D02*X276125Y-9500D01*
X275375Y-7250D02*Y-8750D01*
Y-7250D02*X276125Y-6500D01*
X277625D01*
X278375Y-7250D01*
X275375Y-8000D02*X278375D01*
Y-7250D02*Y-8000D01*
X280925Y-7250D02*Y-9500D01*
Y-7250D02*X281675Y-6500D01*
X282425D01*
X283175Y-7250D01*
Y-9500D01*
X280175Y-6500D02*X280925Y-7250D01*
X285725Y-3500D02*Y-8750D01*
X286475Y-9500D01*
X284975Y-5750D02*X286475D01*
X288725Y-9500D02*X290975D01*
X287975Y-8750D02*X288725Y-9500D01*
X287975Y-7250D02*Y-8750D01*
Y-7250D02*X288725Y-6500D01*
X290225D01*
X290975Y-7250D01*
X287975Y-8000D02*X290975D01*
Y-7250D02*Y-8000D01*
X293525Y-7250D02*Y-9500D01*
Y-7250D02*X294275Y-6500D01*
X295775D01*
X292775D02*X293525Y-7250D01*
X297575Y-3500D02*Y-8750D01*
X298325Y-9500D01*
X299825Y-5000D02*Y-5750D01*
Y-7250D02*Y-9500D01*
X302075Y-7250D02*Y-9500D01*
Y-7250D02*X302825Y-6500D01*
X303575D01*
X304325Y-7250D01*
Y-9500D01*
X301325Y-6500D02*X302075Y-7250D01*
X306875Y-9500D02*X309125D01*
X306125Y-8750D02*X306875Y-9500D01*
X306125Y-7250D02*Y-8750D01*
Y-7250D02*X306875Y-6500D01*
X308375D01*
X309125Y-7250D01*
X306125Y-8000D02*X309125D01*
Y-7250D02*Y-8000D01*
X313625Y-7250D02*Y-8750D01*
Y-7250D02*X314375Y-6500D01*
X315875D01*
X316625Y-7250D01*
Y-8750D01*
X315875Y-9500D02*X316625Y-8750D01*
X314375Y-9500D02*X315875D01*
X313625Y-8750D02*X314375Y-9500D01*
X319175Y-4250D02*Y-9500D01*
Y-4250D02*X319925Y-3500D01*
X320675D01*
X318425Y-6500D02*X319925D01*
X325625Y-3500D02*Y-8750D01*
X326375Y-9500D01*
X324875Y-5750D02*X326375D01*
X327875Y-3500D02*Y-9500D01*
Y-7250D02*X328625Y-6500D01*
X330125D01*
X330875Y-7250D01*
Y-9500D01*
X332675Y-5000D02*Y-5750D01*
Y-7250D02*Y-9500D01*
X334925D02*X337175D01*
X337925Y-8750D01*
X337175Y-8000D02*X337925Y-8750D01*
X334925Y-8000D02*X337175D01*
X334175Y-7250D02*X334925Y-8000D01*
X334175Y-7250D02*X334925Y-6500D01*
X337175D01*
X337925Y-7250D01*
X334175Y-8750D02*X334925Y-9500D01*
X343175Y-7250D02*Y-11750D01*
X342425Y-6500D02*X343175Y-7250D01*
X343925Y-6500D01*
X345425D01*
X346175Y-7250D01*
Y-8750D01*
X345425Y-9500D02*X346175Y-8750D01*
X343925Y-9500D02*X345425D01*
X343175Y-8750D02*X343925Y-9500D01*
X350225Y-6500D02*X350975Y-7250D01*
X348725Y-6500D02*X350225D01*
X347975Y-7250D02*X348725Y-6500D01*
X347975Y-7250D02*Y-8750D01*
X348725Y-9500D01*
X350975Y-6500D02*Y-8750D01*
X351725Y-9500D01*
X348725D02*X350225D01*
X350975Y-8750D01*
X354275Y-3500D02*Y-8750D01*
X355025Y-9500D01*
X353525Y-5750D02*X355025D01*
X356525Y-3500D02*Y-9500D01*
Y-7250D02*X357275Y-6500D01*
X358775D01*
X359525Y-7250D01*
Y-9500D01*
X200750Y198500D02*Y192500D01*
X203000Y198500D02*X203750Y197750D01*
Y193250D01*
X203000Y192500D02*X203750Y193250D01*
X200000Y192500D02*X203000D01*
X200000Y198500D02*X203000D01*
X207800Y195500D02*X208550Y194750D01*
X206300Y195500D02*X207800D01*
X205550Y194750D02*X206300Y195500D01*
X205550Y194750D02*Y193250D01*
X206300Y192500D01*
X208550Y195500D02*Y193250D01*
X209300Y192500D01*
X206300D02*X207800D01*
X208550Y193250D01*
X211850Y198500D02*Y193250D01*
X212600Y192500D01*
X211100Y196250D02*X212600D01*
X214850Y192500D02*X217100D01*
X214100Y193250D02*X214850Y192500D01*
X214100Y194750D02*Y193250D01*
Y194750D02*X214850Y195500D01*
X216350D01*
X217100Y194750D01*
X214100Y194000D02*X217100D01*
Y194750D02*Y194000D01*
X218900Y196250D02*X219650D01*
X218900Y194750D02*X219650D01*
X224150Y198500D02*Y192500D01*
Y198500D02*X226400Y196250D01*
X228650Y198500D01*
Y192500D01*
X230450Y194750D02*Y193250D01*
Y194750D02*X231200Y195500D01*
X232700D01*
X233450Y194750D01*
Y193250D01*
X232700Y192500D02*X233450Y193250D01*
X231200Y192500D02*X232700D01*
X230450Y193250D02*X231200Y192500D01*
X236000Y194750D02*Y192500D01*
Y194750D02*X236750Y195500D01*
X237500D01*
X238250Y194750D01*
Y192500D01*
X235250Y195500D02*X236000Y194750D01*
X242750Y197750D02*X243500Y198500D01*
X245750D01*
X246500Y197750D01*
Y196250D01*
X242750Y192500D02*X246500Y196250D01*
X242750Y192500D02*X246500D01*
X248300D02*X251300Y195500D01*
Y197750D02*Y195500D01*
X250550Y198500D02*X251300Y197750D01*
X249050Y198500D02*X250550D01*
X248300Y197750D02*X249050Y198500D01*
X248300Y197750D02*Y196250D01*
X249050Y195500D01*
X251300D01*
X255800Y198500D02*X258050D01*
Y193250D01*
X257300Y192500D02*X258050Y193250D01*
X256550Y192500D02*X257300D01*
X255800Y193250D02*X256550Y192500D01*
X262100Y195500D02*X262850Y194750D01*
X260600Y195500D02*X262100D01*
X259850Y194750D02*X260600Y195500D01*
X259850Y194750D02*Y193250D01*
X260600Y192500D01*
X262850Y195500D02*Y193250D01*
X263600Y192500D01*
X260600D02*X262100D01*
X262850Y193250D01*
X266150Y194750D02*Y192500D01*
Y194750D02*X266900Y195500D01*
X267650D01*
X268400Y194750D01*
Y192500D01*
X265400Y195500D02*X266150Y194750D01*
X272900Y197750D02*X273650Y198500D01*
X275900D01*
X276650Y197750D01*
Y196250D01*
X272900Y192500D02*X276650Y196250D01*
X272900Y192500D02*X276650D01*
X278450Y193250D02*X279200Y192500D01*
X278450Y197750D02*Y193250D01*
Y197750D02*X279200Y198500D01*
X280700D01*
X281450Y197750D01*
Y193250D01*
X280700Y192500D02*X281450Y193250D01*
X279200Y192500D02*X280700D01*
X278450Y194000D02*X281450Y197000D01*
X284000Y192500D02*X285500D01*
X284750Y198500D02*Y192500D01*
X283250Y197000D02*X284750Y198500D01*
X287300Y193250D02*X288050Y192500D01*
X287300Y194750D02*Y193250D01*
Y194750D02*X288050Y195500D01*
X289550D01*
X290300Y194750D01*
Y193250D01*
X289550Y192500D02*X290300Y193250D01*
X288050Y192500D02*X289550D01*
X287300Y196250D02*X288050Y195500D01*
X287300Y197750D02*Y196250D01*
Y197750D02*X288050Y198500D01*
X289550D01*
X290300Y197750D01*
Y196250D01*
X289550Y195500D02*X290300Y196250D01*
X294800Y193250D02*X295550Y192500D01*
X294800Y197750D02*Y193250D01*
Y197750D02*X295550Y198500D01*
X297050D01*
X297800Y197750D01*
Y193250D01*
X297050Y192500D02*X297800Y193250D01*
X295550Y192500D02*X297050D01*
X294800Y194000D02*X297800Y197000D01*
X300350Y192500D02*X301850D01*
X301100Y198500D02*Y192500D01*
X299600Y197000D02*X301100Y198500D01*
X303650Y196250D02*X304400D01*
X303650Y194750D02*X304400D01*
X306200Y193250D02*X306950Y192500D01*
X306200Y197750D02*Y193250D01*
Y197750D02*X306950Y198500D01*
X308450D01*
X309200Y197750D01*
Y193250D01*
X308450Y192500D02*X309200Y193250D01*
X306950Y192500D02*X308450D01*
X306200Y194000D02*X309200Y197000D01*
X311000Y192500D02*X314000Y195500D01*
Y197750D02*Y195500D01*
X313250Y198500D02*X314000Y197750D01*
X311750Y198500D02*X313250D01*
X311000Y197750D02*X311750Y198500D01*
X311000Y197750D02*Y196250D01*
X311750Y195500D01*
X314000D01*
X315800Y196250D02*X316550D01*
X315800Y194750D02*X316550D01*
X318350Y197750D02*X319100Y198500D01*
X320600D01*
X321350Y197750D01*
Y193250D01*
X320600Y192500D02*X321350Y193250D01*
X319100Y192500D02*X320600D01*
X318350Y193250D02*X319100Y192500D01*
Y195500D02*X321350D01*
X323150Y193250D02*X323900Y192500D01*
X323150Y194750D02*Y193250D01*
Y194750D02*X323900Y195500D01*
X325400D01*
X326150Y194750D01*
Y193250D01*
X325400Y192500D02*X326150Y193250D01*
X323900Y192500D02*X325400D01*
X323150Y196250D02*X323900Y195500D01*
X323150Y197750D02*Y196250D01*
Y197750D02*X323900Y198500D01*
X325400D01*
X326150Y197750D01*
Y196250D01*
X325400Y195500D02*X326150Y196250D01*
X330650Y197750D02*Y192500D01*
Y197750D02*X331400Y198500D01*
X333650D01*
X334400Y197750D01*
Y192500D01*
X330650Y195500D02*X334400D01*
X336200Y198500D02*Y192500D01*
Y198500D02*X338450Y196250D01*
X340700Y198500D01*
Y192500D01*
X348200Y198500D02*X348950Y197750D01*
X345950Y198500D02*X348200D01*
X345200Y197750D02*X345950Y198500D01*
X345200Y197750D02*Y193250D01*
X345950Y192500D01*
X348200D01*
X348950Y193250D01*
Y194750D02*Y193250D01*
X348200Y195500D02*X348950Y194750D01*
X346700Y195500D02*X348200D01*
X350750Y198500D02*Y192500D01*
Y198500D02*X353000Y196250D01*
X355250Y198500D01*
Y192500D01*
X357050Y198500D02*X360050D01*
X358550D02*Y192500D01*
X364550Y198500D02*Y193250D01*
X365300Y192500D01*
X366800D01*
X367550Y193250D01*
Y198500D02*Y193250D01*
X369350Y198500D02*X372350D01*
X370850D02*Y192500D01*
X374900D02*X377150D01*
X374150Y193250D02*X374900Y192500D01*
X374150Y197750D02*Y193250D01*
Y197750D02*X374900Y198500D01*
X377150D01*
X200000Y212750D02*Y207500D01*
Y212750D02*X200750Y213500D01*
X203000D01*
X203750Y212750D01*
Y207500D01*
X200000Y210500D02*X203750D01*
X205550D02*Y208250D01*
X206300Y207500D01*
X207800D01*
X208550Y208250D01*
Y210500D02*Y208250D01*
X211100Y213500D02*Y208250D01*
X211850Y207500D01*
X210350Y211250D02*X211850D01*
X213350Y213500D02*Y207500D01*
Y209750D02*X214100Y210500D01*
X215600D01*
X216350Y209750D01*
Y207500D01*
X218150Y209750D02*Y208250D01*
Y209750D02*X218900Y210500D01*
X220400D01*
X221150Y209750D01*
Y208250D01*
X220400Y207500D02*X221150Y208250D01*
X218900Y207500D02*X220400D01*
X218150Y208250D02*X218900Y207500D01*
X223700Y209750D02*Y207500D01*
Y209750D02*X224450Y210500D01*
X225950D01*
X222950D02*X223700Y209750D01*
X227750Y211250D02*X228500D01*
X227750Y209750D02*X228500D01*
X233000Y213500D02*Y207500D01*
Y213500D02*X235250Y211250D01*
X237500Y213500D01*
Y207500D01*
X239300Y212000D02*Y211250D01*
Y209750D02*Y207500D01*
X241550Y210500D02*X243800D01*
X240800Y209750D02*X241550Y210500D01*
X240800Y209750D02*Y208250D01*
X241550Y207500D01*
X243800D01*
X245600Y213500D02*Y207500D01*
Y209750D02*X246350Y210500D01*
X247850D01*
X248600Y209750D01*
Y207500D01*
X252650Y210500D02*X253400Y209750D01*
X251150Y210500D02*X252650D01*
X250400Y209750D02*X251150Y210500D01*
X250400Y209750D02*Y208250D01*
X251150Y207500D01*
X253400Y210500D02*Y208250D01*
X254150Y207500D01*
X251150D02*X252650D01*
X253400Y208250D01*
X256700Y207500D02*X258950D01*
X255950Y208250D02*X256700Y207500D01*
X255950Y209750D02*Y208250D01*
Y209750D02*X256700Y210500D01*
X258200D01*
X258950Y209750D01*
X255950Y209000D02*X258950D01*
Y209750D02*Y209000D01*
X260750Y213500D02*Y208250D01*
X261500Y207500D01*
X266450Y213500D02*Y207500D01*
X265700Y213500D02*X268700D01*
X269450Y212750D01*
Y211250D01*
X268700Y210500D02*X269450Y211250D01*
X266450Y210500D02*X268700D01*
X272000Y207500D02*X274250D01*
X271250Y208250D02*X272000Y207500D01*
X271250Y209750D02*Y208250D01*
Y209750D02*X272000Y210500D01*
X273500D01*
X274250Y209750D01*
X271250Y209000D02*X274250D01*
Y209750D02*Y209000D01*
X276800Y213500D02*Y208250D01*
X277550Y207500D01*
X276050Y211250D02*X277550D01*
X279800Y207500D02*X282050D01*
X279050Y208250D02*X279800Y207500D01*
X279050Y209750D02*Y208250D01*
Y209750D02*X279800Y210500D01*
X281300D01*
X282050Y209750D01*
X279050Y209000D02*X282050D01*
Y209750D02*Y209000D01*
X284600Y209750D02*Y207500D01*
Y209750D02*X285350Y210500D01*
X286850D01*
X283850D02*X284600Y209750D01*
X289400Y207500D02*X291650D01*
X292400Y208250D01*
X291650Y209000D02*X292400Y208250D01*
X289400Y209000D02*X291650D01*
X288650Y209750D02*X289400Y209000D01*
X288650Y209750D02*X289400Y210500D01*
X291650D01*
X292400Y209750D01*
X288650Y208250D02*X289400Y207500D01*
X294950D02*X297200D01*
X294200Y208250D02*X294950Y207500D01*
X294200Y209750D02*Y208250D01*
Y209750D02*X294950Y210500D01*
X296450D01*
X297200Y209750D01*
X294200Y209000D02*X297200D01*
Y209750D02*Y209000D01*
X299750Y209750D02*Y207500D01*
Y209750D02*X300500Y210500D01*
X301250D01*
X302000Y209750D01*
Y207500D01*
X299000Y210500D02*X299750Y209750D01*
X200000Y228500D02*X203000D01*
X201500D02*Y222500D01*
X204800Y227000D02*Y226250D01*
Y224750D02*Y222500D01*
X207050Y228500D02*Y223250D01*
X207800Y222500D01*
X206300Y226250D02*X207800D01*
X209300Y228500D02*Y223250D01*
X210050Y222500D01*
X212300D02*X214550D01*
X211550Y223250D02*X212300Y222500D01*
X211550Y224750D02*Y223250D01*
Y224750D02*X212300Y225500D01*
X213800D01*
X214550Y224750D01*
X211550Y224000D02*X214550D01*
Y224750D02*Y224000D01*
X216350Y226250D02*X217100D01*
X216350Y224750D02*X217100D01*
X221600Y223250D02*X222350Y222500D01*
X221600Y227750D02*X222350Y228500D01*
X221600Y227750D02*Y223250D01*
X224150Y225500D02*Y223250D01*
X224900Y222500D01*
X226400D01*
X227150Y223250D01*
Y225500D02*Y223250D01*
X229700Y224750D02*Y222500D01*
Y224750D02*X230450Y225500D01*
X231200D01*
X231950Y224750D01*
Y222500D01*
X228950Y225500D02*X229700Y224750D01*
X233750Y228500D02*Y222500D01*
Y224750D02*X236000Y222500D01*
X233750Y224750D02*X235250Y226250D01*
X238550Y224750D02*Y222500D01*
Y224750D02*X239300Y225500D01*
X240050D01*
X240800Y224750D01*
Y222500D01*
X237800Y225500D02*X238550Y224750D01*
X242600D02*Y223250D01*
Y224750D02*X243350Y225500D01*
X244850D01*
X245600Y224750D01*
Y223250D01*
X244850Y222500D02*X245600Y223250D01*
X243350Y222500D02*X244850D01*
X242600Y223250D02*X243350Y222500D01*
X247400Y225500D02*Y223250D01*
X248150Y222500D01*
X248900D01*
X249650Y223250D01*
Y225500D02*Y223250D01*
X250400Y222500D01*
X251150D01*
X251900Y223250D01*
Y225500D02*Y223250D01*
X254450Y224750D02*Y222500D01*
Y224750D02*X255200Y225500D01*
X255950D01*
X256700Y224750D01*
Y222500D01*
X253700Y225500D02*X254450Y224750D01*
X258500Y228500D02*X259250Y227750D01*
Y223250D01*
X258500Y222500D02*X259250Y223250D01*
X263750Y225500D02*X266750D01*
X271250Y228500D02*Y222500D01*
Y228500D02*X274250D01*
X271250Y225500D02*X273500D01*
X278300D02*X279050Y224750D01*
X276800Y225500D02*X278300D01*
X276050Y224750D02*X276800Y225500D01*
X276050Y224750D02*Y223250D01*
X276800Y222500D01*
X279050Y225500D02*Y223250D01*
X279800Y222500D01*
X276800D02*X278300D01*
X279050Y223250D01*
X281600Y228500D02*Y222500D01*
Y223250D02*X282350Y222500D01*
X283850D01*
X284600Y223250D01*
Y224750D02*Y223250D01*
X283850Y225500D02*X284600Y224750D01*
X282350Y225500D02*X283850D01*
X281600Y224750D02*X282350Y225500D01*
X287150Y224750D02*Y222500D01*
Y224750D02*X287900Y225500D01*
X289400D01*
X286400D02*X287150Y224750D01*
X291200Y227000D02*Y226250D01*
Y224750D02*Y222500D01*
X293450Y225500D02*X295700D01*
X292700Y224750D02*X293450Y225500D01*
X292700Y224750D02*Y223250D01*
X293450Y222500D01*
X295700D01*
X299750Y225500D02*X300500Y224750D01*
X298250Y225500D02*X299750D01*
X297500Y224750D02*X298250Y225500D01*
X297500Y224750D02*Y223250D01*
X298250Y222500D01*
X300500Y225500D02*Y223250D01*
X301250Y222500D01*
X298250D02*X299750D01*
X300500Y223250D01*
X303800Y228500D02*Y223250D01*
X304550Y222500D01*
X303050Y226250D02*X304550D01*
X306050Y227000D02*Y226250D01*
Y224750D02*Y222500D01*
X307550Y224750D02*Y223250D01*
Y224750D02*X308300Y225500D01*
X309800D01*
X310550Y224750D01*
Y223250D01*
X309800Y222500D02*X310550Y223250D01*
X308300Y222500D02*X309800D01*
X307550Y223250D02*X308300Y222500D01*
X313100Y224750D02*Y222500D01*
Y224750D02*X313850Y225500D01*
X314600D01*
X315350Y224750D01*
Y222500D01*
X312350Y225500D02*X313100Y224750D01*
X320600Y228500D02*Y222500D01*
X322850Y228500D02*X323600Y227750D01*
Y223250D01*
X322850Y222500D02*X323600Y223250D01*
X319850Y222500D02*X322850D01*
X319850Y228500D02*X322850D01*
X326150Y224750D02*Y222500D01*
Y224750D02*X326900Y225500D01*
X328400D01*
X325400D02*X326150Y224750D01*
X332450Y225500D02*X333200Y224750D01*
X330950Y225500D02*X332450D01*
X330200Y224750D02*X330950Y225500D01*
X330200Y224750D02*Y223250D01*
X330950Y222500D01*
X333200Y225500D02*Y223250D01*
X333950Y222500D01*
X330950D02*X332450D01*
X333200Y223250D01*
X335750Y225500D02*Y223250D01*
X336500Y222500D01*
X337250D01*
X338000Y223250D01*
Y225500D02*Y223250D01*
X338750Y222500D01*
X339500D01*
X340250Y223250D01*
Y225500D02*Y223250D01*
X342050Y227000D02*Y226250D01*
Y224750D02*Y222500D01*
X344300Y224750D02*Y222500D01*
Y224750D02*X345050Y225500D01*
X345800D01*
X346550Y224750D01*
Y222500D01*
X343550Y225500D02*X344300Y224750D01*
X350600Y225500D02*X351350Y224750D01*
X349100Y225500D02*X350600D01*
X348350Y224750D02*X349100Y225500D01*
X348350Y224750D02*Y223250D01*
X349100Y222500D01*
X350600D01*
X351350Y223250D01*
X348350Y221000D02*X349100Y220250D01*
X350600D01*
X351350Y221000D01*
Y225500D02*Y221000D01*
M02*
